<?xml version="1.0" encoding="utf-8"?>
<!-- Generator: Adobe Illustrator 16.0.0, SVG Export Plug-In . SVG Version: 6.00 Build 0)  -->
<!DOCTYPE svg PUBLIC "-//W3C//DTD SVG 1.1//EN" "http://www.w3.org/Graphics/SVG/1.1/DTD/svg11.dtd">
<svg version="1.1" id="Layer_1" xmlns="http://www.w3.org/2000/svg" xmlns:xlink="http://www.w3.org/1999/xlink" x="0px" y="0px"
	 width="59px" height="55px" viewBox="0 0 59 55" enable-background="new 0 0 59 55" xml:space="preserve">
<path fill-rule="evenodd" clip-rule="evenodd" fill="#1EE1E6" d="M54.59,44.46c1.16,0.69,3.02,1.37,4.41,1.83
	c-2.32,2.29-3.48,5.96-2.79,8.48c-1.86-0.46-3.95-1.15-4.64-1.15c-0.47,0-3.02,0.92-4.42,1.38c-0.23-0.23-0.23-0.69-0.23-4.13
	c-0.7-1.37-1.62-2.97-2.55-4.35c1.16-0.69,2.78-1.15,4.18-2.06c0.93-0.69,1.86-2.06,2.78-3.21C52.03,41.25,53.19,43.77,54.59,44.46z
	 M32.75,44.69c0.93,0.68,2.56,1.14,3.95,1.6c-0.7,1.15-2.09,2.29-2.55,3.9c-0.47,1.37,0,3.21-0.24,4.81
	c-1.39-0.46-3.95-1.38-4.64-1.38c-0.47,0-3.02,0.92-4.42,1.38c-0.23-1.6,0-3.44-0.46-4.81c-0.46-1.38-1.63-2.52-2.32-3.67
	c1.16-0.69,2.55-0.92,3.95-1.83c1.16-0.69,2.32-2.29,3.25-3.44C30.43,42.17,31.13,43.77,32.75,44.69z M10.22,44.46
	c1.16,0.91,3.02,1.37,4.41,1.83c-0.93,1.38-2.09,2.98-2.78,4.58L11.61,55c-1.39-0.46-3.94-1.38-4.41-1.38
	c-0.7,0-2.55,0.69-4.64,1.15c0.46-3.67-1.4-6.19-2.56-8.48c2.56-0.92,4.88-2.06,6.97-5.04C7.9,41.94,8.83,43.54,10.22,44.46z
	 M38.33,11.23l-4.18,4.12h-22.3v3.21h19.97v4.59H11.85v3.2h29.03l11.85-10.77v19.94c0,0.23-0.47,0.23-0.93,0.23
	c-1.86,0-4.65-3.44-6.5-4.81H10.45c-0.93-0.46-4.41-2.52-4.41-4.13V15.12c0-1.37,2.79-4.35,4.18-3.89H38.33z M52.26,10.77
	L39.72,23.15h-3.95v-4.59L47.85,6.87C49.48,8.02,50.87,9.4,52.26,10.77z M59,2.98c0,1.6-1.63,2.75-3.95,5.27
	c-1.39-1.15-3.02-2.75-4.41-4.13C52.73,1.83,53.66,0,55.98,0C58.07,0,59,1.37,59,2.98z"/>
</svg>
