<?xml version="1.0" encoding="utf-8"?>
<!-- Generator: Adobe Illustrator 16.0.0, SVG Export Plug-In . SVG Version: 6.00 Build 0)  -->
<!DOCTYPE svg PUBLIC "-//W3C//DTD SVG 1.1//EN" "http://www.w3.org/Graphics/SVG/1.1/DTD/svg11.dtd">
<svg version="1.1" id="Layer_1" xmlns="http://www.w3.org/2000/svg" xmlns:xlink="http://www.w3.org/1999/xlink" x="0px" y="0px"
	 width="54px" height="55px" viewBox="0 0 54 55" enable-background="new 0 0 54 55" xml:space="preserve">
<path fill-rule="evenodd" clip-rule="evenodd" fill="#1EE1E6" d="M42.56,39.26v11h-4.02v-11H42.56z M20.12,34.521v6.68h-8.68v-6.68
	H20.12z M42.56,32.371v4.09h-4.02v-4.09H42.56z M54,41.201c0,7.98-6.35,13.8-13.55,13.8c-4.66,0-10.8-2.8-12.92-9.7
	c-0.21-0.65-0.42-1.51-0.42-1.94v-4.1c1.48-8.19,7.83-11.64,13.34-11.64C48.28,27.621,54,33.871,54,41.201z M29.22,23.101v3.88
	c-0.84,0.64-1.9,1.72-2.75,2.8H11.44v-6.68H29.22z M29.22,11.671v6.68H11.44v-6.68H29.22z M33.46,0.031
	c1.9-0.43,6.99,3.67,6.99,6.47v16.38c-1.91-0.21-4.87,0.22-6.57,1.29V7.581c-0.21-0.22-0.63-0.87-1.27-0.87H7.62
	c-0.42,0.22-1.06,0.43-1.06,1.08v40.53h17.16c0.63,1.72,2.54,4.74,4.66,6.68H0v-48.5c0-2.59,3.81-6.68,6.78-6.47H33.46z"/>
</svg>
