<?xml version="1.0" encoding="utf-8"?>
<!-- Generator: Adobe Illustrator 16.0.0, SVG Export Plug-In . SVG Version: 6.00 Build 0)  -->
<!DOCTYPE svg PUBLIC "-//W3C//DTD SVG 1.1//EN" "http://www.w3.org/Graphics/SVG/1.1/DTD/svg11.dtd">
<svg version="1.1" id="Layer_1" xmlns="http://www.w3.org/2000/svg" xmlns:xlink="http://www.w3.org/1999/xlink" x="0px" y="0px"
	 width="55px" height="55px" viewBox="0 0 55 55" enable-background="new 0 0 55 55" xml:space="preserve">
<g>
	<path fill-rule="evenodd" clip-rule="evenodd" fill="#1EE1E6" d="M41.47,37.227c-1.97,0-4.15,0.22-7.2,0.66v-3.98
		c2.18-0.45,4.58-0.67,7.2-0.89V37.227z M20.52,33.907v3.98c-2.84-0.44-5.02-0.66-7.21-0.66v-4.21
		C15.93,33.237,18.33,33.457,20.52,33.907z M43.87,30.137l0.65,0.67v8.63c-0.21,0.22-1.09,0.89-1.52,0.89
		c-2.19,0-4.37,0.22-6.55,0.44c-1.31,0.22-3.28,0.89-3.93,0.89c-0.44,0-0.65-0.44-1.09-0.67v-9.3c1.53-1.55,3.71-1.11,5.67-1.55
		H43.87z M23.57,31.907v8.64c-0.22,0.44-0.87,1.11-1.53,1.11c-0.43,0-2.4-0.89-3.71-0.89c-2.83-0.22-5.23,0.22-7.85-0.88v-9.75h3.92
		C17.24,30.137,20.52,29.697,23.57,31.907z M43.87,24.827c0.44,0.44,0.65,0.66,0.65,1.1c0,0.67-0.43,1.33-0.87,1.33
		c-3.49,0.67-10.26,1.33-10.91,1.33c-1.31,0-1.31-0.88-1.31-1.55c0-2.21,4.8-1.99,5.67-2.21H43.87z M23.57,27.037
		c0,1.33-1.31,1.55-1.74,1.55c-0.44,0-7.21-0.88-10.7-1.33c-0.65-0.44-0.65-1.33-0.65-1.33c0-0.44,0-0.66,0.43-1.1
		C11.79,24.827,23.57,24.157,23.57,27.037z M4.8,17.067v28.13c0.87,1.11,1.53,1.11,1.97,1.11c0.65,0,4.8-0.44,5.45-0.44
		c8.3,0,13.1,3.1,15.06,3.1c1.97,0,6.77-3.1,15.28-3.1c0.44,0,4.8,0.44,5.24,0.44c0.87,0,1.31,0,2.18-1.11v-28.13h1.96v30.79
		c-1.09,0.22-2.61,0-3.27,0c-5.67,0-11.79,1.55-17.24,3.76c-1.31,0.45-3.49,0.23-4.15,0.23c-0.43,0-2.84,0.22-3.93-0.23
		c-6.76-2.87-12.22-3.54-18.98-3.54H2.84v-31.01H4.8z M15.06,2.007l-0.22,18.17v-9.31h-1.96c-1.53,0.45-3.28,0.67-5.02,1.33v30.57
		c0.43,0.22,1.09-0.23,6.98,0c3.28,0,7.2,0.66,10.91,2.43l0.44-21.48c0.44,0.44,0.66,0.66,1.09,0.66c0.66,0,0.87-0.22,1.53-0.66
		v21.48c1.31-0.44,8.29-2.43,10.69-2.43h7.21l0.21-30.57c-1.52-0.44-4.58-1.33-5.23-1.33h-1.97v9.31V2.007h0.44v5.76
		c2.18,0.22,4.58,0.45,6.76,1.11c0.44,0.22,2.41,0.22,2.62,1.55c0.22,0.89,0.22,2.22,0.22,3.54c0.22,0,5.24-0.22,5.24,2.22v34.33
		c-0.87,1.77-2.62,0.66-3.71,0.66h-5.24c-13.31,1.55-9.17,3.77-18.77,3.77c-0.43,0-3.49,0.22-4.8-0.22
		c-1.53-0.23-2.62-1.11-3.93-1.56c-3.27-1.1-6.98-1.99-10.26-1.99c-5.67-0.22-6.98,0.22-8.29-0.22v-35.21c0.87-2,2.84-2,5.02-1.78
		v-2.43v-1.11c2.62-2.21,6.33-2.21,9.6-2.66v-5.76H15.06z"/>
	<path fill-rule="evenodd" clip-rule="evenodd" fill="#1EE1E6" d="M37.1,2.897v16.17h-7.64c-0.65,0.44-1.31,1.11-1.96,1.77
		c-0.87-0.66-2.18-1.77-2.84-1.77h-6.98V2.897H37.1z M37.1,0.017c0.44,0,2.84,1.11,2.84,2.22v17.27c-0.44,1.11-1.75,2.44-2.4,2.44
		h-6.98c-1.1,1.1-2.41,2.65-3.28,2.65c-0.87,0-2.18-1.55-3.05-2.65h-7.21c-0.87-0.45-2.18-1.77-2.18-2.22V2.237
		c0.22-0.67,1.53-2.44,2.62-2.22H37.1z"/>
	<path fill-rule="evenodd" clip-rule="evenodd" fill="#1EE1E6" d="M29.68,10.647c-0.65,1.33-1.74,1.11-0.87,2.88
		c-0.44-0.22-0.87-0.66-1.53-0.66c-0.43,0-0.87,0.44-1.31,0.66c0-1.11,0.44-0.66-0.87-2.88c0.65-0.22,1.96-0.88,2.18-1.55
		C27.5,9.097,28.81,11.087,29.68,10.647z M27.94,4.887c0.65,1.11,1.09,2.22,1.96,3.1c0.44,0.45,3.93-0.22,3.93,1.78
		c0,0.44-2.62,2.65-2.62,3.1c0,0.66,0.66,2.65,0.66,3.1c0,0.66-0.88,1.33-1.31,1.33c-0.66,0-2.62-1.55-3.28-1.55
		c-0.43,0-2.62,1.55-3.27,1.55c-0.44,0-1.09-0.67-1.09-1.33c0-0.45,0.65-2.44,0.65-3.1c0-0.45-2.4-1.78-2.4-3.1
		c0-1.78,2.4-0.89,3.71-1.78c0.87-0.66,1.31-1.99,1.75-3.1H27.94z"/>
</g>
</svg>
