<?xml version="1.0" encoding="utf-8"?>
<!-- Generator: Adobe Illustrator 16.0.0, SVG Export Plug-In . SVG Version: 6.00 Build 0)  -->
<!DOCTYPE svg PUBLIC "-//W3C//DTD SVG 1.1//EN" "http://www.w3.org/Graphics/SVG/1.1/DTD/svg11.dtd">
<svg version="1.1" id="Layer_1" xmlns="http://www.w3.org/2000/svg" xmlns:xlink="http://www.w3.org/1999/xlink" x="0px" y="0px"
	 width="112px" height="75px" viewBox="0 0 112 75" enable-background="new 0 0 112 75" xml:space="preserve">
<path fill-rule="evenodd" clip-rule="evenodd" fill="#087FED" d="M47.423,37.5c0,5.045-5.045,10.09-10.09,10.09
	c-6.054,0-10.09-5.045-10.09-10.09c0-6.054,4.036-10.09,10.09-10.09C42.378,27.41,47.423,31.446,47.423,37.5z M61.549,9.248
	c3.027-5.045,13.117-9.081,18.162-9.081H112c0,11.099-19.171,26.234-30.27,28.252c6.054,1.009,12.108,1.009,18.162,0
	c-1.009,4.036-6.054,14.126-12.108,18.162c-5.045,3.027-11.099,3.027-15.135,6.054c-4.036,2.018-6.054,9.081-11.1,13.117
	c-8.072,7.063-16.144,9.081-24.216,9.081C14.126,74.833,0,57.681,0,37.5S17.153,0.167,37.333,0.167
	C43.387,0.167,56.504,3.194,61.549,9.248z"/>
</svg>
