<?xml version="1.0" encoding="utf-8"?>
<!-- Generator: Adobe Illustrator 16.0.0, SVG Export Plug-In . SVG Version: 6.00 Build 0)  -->
<!DOCTYPE svg PUBLIC "-//W3C//DTD SVG 1.1//EN" "http://www.w3.org/Graphics/SVG/1.1/DTD/svg11.dtd">
<svg version="1.1" id="Layer_1" xmlns="http://www.w3.org/2000/svg" xmlns:xlink="http://www.w3.org/1999/xlink" x="0px" y="0px"
	 width="75px" height="75px" viewBox="0 0 75 75" enable-background="new 0 0 75 75" xml:space="preserve">
<path fill-rule="evenodd" clip-rule="evenodd" fill="#FFFFFF" d="M10.71,45.29c0.58,0.3,4.11,2.65,4.11,4.12v9.41
	c-5-3.82-9.7-9.11-10.88-13.53H10.71z M57.47,45.29c0,5-4.41,8.53-8.53,8.53c-5.29,0-7.94-4.41-7.94-8.53
	c0-5.29,3.53-7.94,7.94-7.94C53.94,37.35,57.47,40.88,57.47,45.29z M61.59,45.29c0,7.65-6.18,12.95-12.65,12.95
	c-7.94,0-12.35-6.77-12.35-12.95c0-7.35,5-12.35,12.35-12.35C56.88,32.94,61.59,38.82,61.59,45.29z M68.06,45.29
	c0,5.3-4.12,12.06-4.12,12.36C63.94,59.71,76,68.82,76,71.47c0,2.06-2.94,3.53-3.53,3.53c-1.76,0-12.94-12.65-14.41-12.65
	c-1.47,0-4.12,2.06-8.82,2.06c-0.89,0-2.65-0.59-4.12-0.59c-5.3,0-14.71-9.11-14.71-14.41v-7.94c3.53-11.76,10.88-14.71,18.53-14.71
	C60.12,26.76,68.06,35.29,68.06,45.29z M65.12,27.06v0.88c-5.88-4.7-10.88-5.88-16.18-5.88c-13.53,0-23.53,10.88-23.53,23.53
	c0,5.29,2.65,14.12,9.41,18.53c-0.88,0.29-1.76,0.29-2.64,0.29c-4.42,0-7.94-0.88-12.65-2.94V49.12c0.29-2.06-4.71-8.53-8.53-8.53
	H2.18C1.59,39.12,1,36.76,1,36.18v-1.77h10c5.88-0.88,11.47-7.94,11.18-12.94c-0.89-1.76,2.94-8.23,6.76-8.23h8.24
	c3.23,0,10.58-5.3,11.17-9.42C57.47,7.94,63.94,19.12,65.12,27.06z M43.94,1.76v0.59c0,2.06-4.41,6.18-6.76,6.18h-7.36
	c-3.82,0.29-8.53,2.06-10.88,7.06c-1.47,2.35-1.18,5.29-1.76,7.94C16.59,26.47,11.88,30,9.53,30H1v-1.76C3.65,9.12,19.24,0,33.06,0
	C36.59,0,39.82,0,43.94,1.76z"/>
</svg>
