<?xml version="1.0" encoding="utf-8"?>
<!-- Generator: Adobe Illustrator 16.0.0, SVG Export Plug-In . SVG Version: 6.00 Build 0)  -->
<!DOCTYPE svg PUBLIC "-//W3C//DTD SVG 1.1//EN" "http://www.w3.org/Graphics/SVG/1.1/DTD/svg11.dtd">
<svg version="1.1" id="Layer_1" xmlns="http://www.w3.org/2000/svg" xmlns:xlink="http://www.w3.org/1999/xlink" x="0px" y="0px"
	 width="56px" height="55px" viewBox="0 0 56 55" enable-background="new 0 0 56 55" xml:space="preserve">
<path fill-rule="evenodd" clip-rule="evenodd" fill="#1EE1E6" d="M29.65,51.67c0,0.89,0.22,3.33-1.76,3.33
	c-0.44,0-0.88-0.44-1.32-0.89v-4.88c0.44-0.44,0.88-0.66,1.32-0.66C30.09,48.57,29.65,51.01,29.65,51.67z M14.49,44.35
	c0,1.34-3.07,4.22-3.73,4.22c-1.32,0-1.54-0.67-1.54-1.55c0-1.11,1.98-3.55,2.86-4h0.66C13.84,43.02,14.49,43.69,14.49,44.35z
	 M47.87,41.47c-0.65,0.67-2.63,2-2.63,2.44c0,0.67,2.2,2.88,3.29,4.21c-0.66,0.89-1.75,1.78-2.85,2.67
	c-1.1-1.11-2.42-2.67-3.73-4.22c-0.88,0.89-1.98,1.78-2.86,2.22l-2.85-11.53v-1.11L47.87,41.47z M56,31.05
	c0,1.33-1.32,1.77-1.76,1.77c-1.09,0-4.61-0.66-4.61-2.22c0-1.77,0.88-1.33,1.98-1.33S56,29.05,56,31.05z M6.37,30.6
	c0,1.56-4.39,2.22-4.83,2.22C0,32.82,0,31.49,0,31.05c0-2,3.73-1.78,4.17-1.78C5.71,29.27,6.37,29.27,6.37,30.6z M52.93,13.31
	c0,1.33-4.4,3.1-4.62,3.1C47,16.41,47,15.75,47,14.86c0-1.55,3.07-3.11,4.17-3.11S52.93,12.42,52.93,13.31z M9.22,14.86
	c0,0.89-0.66,1.55-1.53,1.55c-1.32,0-4.4-2.22-4.4-3.33c0-1.33,0.66-1.33,1.32-1.33C5.93,11.75,9.22,13.75,9.22,14.86z M46.12,26.39
	c0,2.66-1.32,6.88-2.64,9.32l-7.68-3.77c0.22-0.67,0.44-1.56,0.44-2c0-2.22-1.76-5.1-4.4-5.1h-7.68c-0.44-0.22-1.1-1.11-1.1-1.55
	c0-0.45,0.22-1.56,1.1-1.56h10.32c1.32-0.88,1.76-1.33,1.76-1.77c0-0.67-0.88-1.77-1.54-1.77h-4.83c0.22-0.89-0.22-3.33-1.76-3.33
	c-1.98,0-1.98,2.44-1.76,3.33c-3.73-1.11-6.59,1.99-6.59,5.1c0,1.99,1.98,5.1,4.62,5.1h7.24c0.44,0,1.32,0.88,1.32,1.55
	c0,0.44-0.44,1.11-1.1,1.55H21.08c-1.32,0.22-1.32,1.11-1.32,1.78c0,0.44,0.66,1.77,1.54,1.77h5.05c-0.22,0.89-0.22,3.33,1.76,3.33
	c1.1,0,2.2-2.44,1.76-3.33c0.66,0,1.53,0,2.19-0.22c0.88,2.66,2.2,7.76,2.2,8.2c0,1.11-6.15,1.78-6.37,1.78
	c-6.15,0-14.05-3.99-16.91-11.98c-0.22-1.11-0.88-3.1-0.88-3.55v-5.54c2.2-10.65,10.1-15.3,17.79-15.3
	C37.99,8.43,46.12,16.41,46.12,26.39z M38.87,1.33c0,0.67-0.88,2.66-1.54,3.99c-0.22,0.45-0.88,0.89-1.31,0.89
	c-1.76,0-1.32-1.33-1.32-1.77C34.7,3.1,35.58,0,37.11,0C38.21,0,38.87,0.67,38.87,1.33z M21.52,4.44c0,1.1-0.66,1.77-1.54,1.77
	c-1.75,0-2.63-4.44-2.63-4.88C17.35,0,18.01,0,18.67,0C20.2,0,21.52,3.77,21.52,4.44z"/>
</svg>
