<?xml version="1.0" encoding="utf-8"?>
<!-- Generator: Adobe Illustrator 16.0.0, SVG Export Plug-In . SVG Version: 6.00 Build 0)  -->
<!DOCTYPE svg PUBLIC "-//W3C//DTD SVG 1.1//EN" "http://www.w3.org/Graphics/SVG/1.1/DTD/svg11.dtd">
<svg version="1.1" id="Layer_1" xmlns="http://www.w3.org/2000/svg" xmlns:xlink="http://www.w3.org/1999/xlink" x="0px" y="0px"
	 width="75px" height="75px" viewBox="0 0 75 75" enable-background="new 0 0 75 75" xml:space="preserve">
<path fill-rule="evenodd" clip-rule="evenodd" fill="#FFFFFF" d="M61.19,55.241c1.57-0.31,2.51,1.26,2.51,2.2
	c0,0.63-0.62,2.51-1.88,2.51H32.95c-1.57-0.32-1.57-1.88-1.57-2.51c0-0.94,0.31-2.51,2.2-2.2H61.19z M23.54,57.441
	c0,2.51-2.2,3.76-3.77,3.76c-2.2,0-3.45-2.19-3.45-3.76c0-2.2,1.88-3.45,3.45-3.45C22.28,53.991,23.54,55.871,23.54,57.441z
	 M28.56,57.441c0,5.64-4.71,8.78-8.79,8.78c-5.65,0-8.47-4.7-8.47-8.78c0-4.71,3.76-8.47,8.47-8.47
	C25.42,48.971,28.56,53.681,28.56,57.441z M64.96,45.211c5.65-0.63,5.02,8.78,5.02,12.23c0,2.19,1.25,12.54-4.39,12.54H9.1
	c-0.94-0.62-4.08-2.51-4.08-4.07v-16.62c0.63-2.51,2.2-4.08,4.71-4.08H64.96z M66.21,40.191c3.14-0.31,8.79,4.7,8.79,7.84v18.82
	c0,2.19-4.71,8.15-8.16,8.15H7.85c-2.2,0-7.85-5.02-7.85-7.84v-19.13c0-3.14,5.33-8.47,8.47-7.84H66.21z M61.19,15.101
	c1.57-0.31,2.51,1.26,2.51,2.2c0,0.63-0.62,2.51-1.88,2.51H32.95c-1.57-0.32-1.57-1.88-1.57-2.51c0-0.94,0.31-2.51,2.2-2.2H61.19z
	 M26.05,13.541c0,2.5-6.91,8.78-7.54,9.4c-0.31,0.32-0.62,0.63-1.56,0.63c-1.57,0-5.65-5.33-5.65-6.59c0-1.56,0.94-2.5,2.19-2.5
	c1.89,0,2.2,1.25,3.77,2.82c1.25-1.57,3.77-5.96,6.28-5.96C25.42,11.341,26.05,12.911,26.05,13.541z M64.96,5.071
	c5.65-0.63,5.02,8.78,5.02,12.23c0,2.19,1.25,12.54-4.39,12.54H9.1c-0.94-0.62-4.08-2.51-4.08-4.07V9.151
	c0.63-2.51,2.2-4.08,4.71-4.08H64.96z M66.21,0.051c3.14-0.31,8.79,4.7,8.79,7.84v18.82c0,2.19-4.71,8.15-8.16,8.15H7.85
	c-2.2,0-7.85-5.02-7.85-7.84V7.891c0-3.14,5.33-8.47,8.47-7.84H66.21z"/>
</svg>
