<?xml version="1.0" encoding="utf-8"?>
<!-- Generator: Adobe Illustrator 16.0.0, SVG Export Plug-In . SVG Version: 6.00 Build 0)  -->
<!DOCTYPE svg PUBLIC "-//W3C//DTD SVG 1.1//EN" "http://www.w3.org/Graphics/SVG/1.1/DTD/svg11.dtd">
<svg version="1.1" id="Layer_1" xmlns="http://www.w3.org/2000/svg" xmlns:xlink="http://www.w3.org/1999/xlink" x="0px" y="0px"
	 width="55px" height="55px" viewBox="0 0 55 55" enable-background="new 0 0 55 55" xml:space="preserve">
<path fill-rule="evenodd" clip-rule="evenodd" fill="#1EE1E6" d="M20.493,43.569c0,3.02-4.533,2.38-5.612,2.38
	c-1.721,0-5.602,0.43-5.602-2.38c0-3.01,3.881-2.15,5.602-2.15C15.96,41.419,20.493,40.56,20.493,43.569z M23.293,32.359
	c1.08,0,1.945,1.51,1.945,1.94c0,0.65-1.079,2.38-2.159,2.38H11c-2.159-0.44-1.722-1.73-1.722-2.38c0-0.86-0.438-1.29,1.508-1.94
	H23.293z M42.493,30.209c1.507,1.72,2.587,3.88,3.667,5.6c1.507,0.65,8.841-0.43,8.841,3.24c0,2.37-5.612,5.6-5.612,7.11
	c0,0.43,1.079,6.04,1.079,6.47c0,1.94-1.721,2.37-2.373,2.37c-0.428,0-6.468-3.23-6.896-3.23c-0.652,0-6.254,3.23-6.906,3.23
	c-1.507,0-1.721-1.08-2.159-2.37L33,46.379c-0.652-1.51-5.388-5.61-5.388-7.33c0-3.67,7.333-2.59,8.627-3.24
	c1.721-0.86,2.149-5.82,4.96-5.82C41.841,29.99,42.055,29.779,42.493,30.209z M34.721,23.089c1.293,0,1.945,1.3,1.945,2.16
	c0,2.8-4.96,2.16-5.826,2.16c-2.159,0-5.387,0.64-5.387-2.38c0-0.86-0.438-1.29,1.507-1.94H34.721z M20.493,25.25
	c0,2.8-4.533,2.16-5.612,2.16c-1.721,0-5.602,0.64-5.602-2.16c0-3.02,3.881-2.16,5.602-2.16
	C16.612,23.089,20.493,22.229,20.493,25.25z M25.015,9.08c0,1.51-1.069,2.16-2.149,2.16c-1.293,0-2.159-1.08-2.159-2.16
	c0-1.29,0.866-2.15,2.159-2.15C23.945,6.93,25.015,7.79,25.015,9.08z M18.12,9.08c0,1.51-1.08,2.16-2.16,2.16
	c-1.293,0-2.159-1.08-2.159-2.16c0-1.29,0.866-2.15,2.159-2.15C17.04,6.93,18.12,7.79,18.12,9.08z M11.214,9.08
	c0,1.51-1.08,2.16-2.159,2.16c-1.293,0-2.149-1.08-2.149-2.16c0-1.29,0.856-2.15,2.149-2.15C10.134,6.93,11.214,7.79,11.214,9.08z
	 M52.841,0.029C53.279-0.19,55,0.89,55,1.54v26.51c-0.428,0.43-1.507,1.73-2.159,1.73c-0.855,0-2.374-1.08-2.374-2.16v-9.27H4.533
	v32.12h20.482c0.652,0.22,1.08,0,1.518,0.43c0.428,0.44,0.856,1.3,0.856,1.94c0,0.44-0.642,2.16-1.721,2.16H1.507
	C1.08,54.779,0,53.919,0,53.49V1.54c0.214-0.43,1.293-1.51,1.945-1.51H52.841z"/>
</svg>
