<?xml version="1.0" encoding="utf-8"?>
<!-- Generator: Adobe Illustrator 16.0.0, SVG Export Plug-In . SVG Version: 6.00 Build 0)  -->
<!DOCTYPE svg PUBLIC "-//W3C//DTD SVG 1.1//EN" "http://www.w3.org/Graphics/SVG/1.1/DTD/svg11.dtd">
<svg version="1.1" id="Layer_1" xmlns="http://www.w3.org/2000/svg" xmlns:xlink="http://www.w3.org/1999/xlink" x="0px" y="0px"
	 width="52px" height="55px" viewBox="0 0 52 55" enable-background="new 0 0 52 55" xml:space="preserve">
<g>
	<path fill-rule="evenodd" clip-rule="evenodd" fill="#1EE1E6" d="M28.5,51.681v1.51h-5v-1.51H28.5z M30.24,35.101
		c0,0.22-0.21,0.65-0.65,0.86c-0.44-0.21-0.87-0.21-0.87-0.86c0-0.43,0.22-0.21,0.22-0.43c0.21,0,0-0.21,0.43-0.21
		C30.03,34.46,30.03,34.891,30.24,35.101z M23.28,35.101c0,0.22-0.22,0.65-0.65,0.86c-0.44-0.21-0.87-0.21-0.87-0.86
		c0-0.43,0.21-0.21,0.21-0.43c0.22,0,0-0.21,0.44-0.21C23.06,34.46,23.06,34.891,23.28,35.101z M26.76,34.67v15.08h-1.52V34.67
		c0.22-0.21,0.22-0.64,0.65-0.64C26.54,34.03,26.54,34.46,26.76,34.67z M33.07,32.951c0,0.21,0.22,0.43,0.22,1.08
		c-0.22,0.21-0.44,0.21-0.65,0.43c-0.22-0.22-0.44-0.22-0.66-0.43l0.22-1.08H33.07z M20.02,33.161v0.87
		c-0.22,0.21-0.44,0.21-0.66,0.43c-0.21-0.22-0.65-0.22-0.65-0.87c0-0.43,0.22-0.43,0.44-0.64L20.02,33.161z M35.46,30.8
		c0,0.21-0.21,0.64-0.65,0.86c-0.43-0.22-0.87-0.22-0.87-0.86c0-0.44,0.22-0.22,0.22-0.44c0.22,0,0-0.21,0.43-0.21
		C35.25,30.15,35.25,30.581,35.46,30.8z M18.06,30.8c0,0.21-0.22,0.64-0.65,0.86c-0.44-0.22-0.87-0.22-0.87-0.86
		c0-0.44,0.21-0.22,0.21-0.44c0.22,0,0-0.21,0.44-0.21C17.84,30.15,17.84,30.581,18.06,30.8z M32.2,15.07
		c1.52,2.16,3.26,4.53,4.57,6.9l-10.88,10.98l-10.66-10.98c1.31-2.16,2.83-4.53,4.57-6.9H32.2z M43.3,25.63
		c0,9.04-8.27,14.21-11.32,24.12c-0.21,0.64-1.08,1.29-1.74,1.72c0.66,3.88-2.17,3.44-4.35,3.44c-1.52,0-3.26,0.44-3.92-0.64
		c-0.43-0.86-0.21-1.94-0.43-2.8c-1.96-0.65-2.18-3.23-2.83-4.52c-0.87-2.37-2.17-4.53-3.48-6.46c-1.52-2.8-6.53-9.26-6.53-12.71
		v-4.09c2.4-10.55,9.58-14.43,17.19-14.43C35.68,9.26,43.3,16.371,43.3,25.63z"/>
	<path fill-rule="evenodd" clip-rule="evenodd" fill="#1EE1E6" d="M33.72,22.831l-5.65,6.03c0.21-1.94,0.87-4.09,1.52-6.03H33.72z
		 M27.63,22.831c-0.43,1.5-0.87,3.23-1.3,4.95c-0.22,0-0.22,0.22-0.44,0.43c-0.43-1.72-1.09-3.66-1.52-5.38H27.63z M22.41,22.831
		c0.44,1.94,1.09,3.87,1.52,6.03l-5.65-6.03H22.41z M34.16,20.891h-3.48v-0.65c0.43-0.64,0.87-1.5,1.3-2.15
		C32.64,18.3,33.51,19.811,34.16,20.891z M27.63,20.891h-3.04c0.21-0.86,0.87-1.94,1.3-2.8C26.54,18.741,27.2,19.811,27.63,20.891z
		 M21.54,20.891h-3.7c0.44-0.86,1.31-1.94,1.74-2.8C20.45,18.3,20.67,19.811,21.54,20.891z M30.46,16.8l-1.31,2.58
		c-0.43-0.64-1.08-1.72-1.52-2.58H30.46z M24.59,16.8c-0.44,0.86-1.09,1.94-1.53,2.8c-0.43-0.65-1.09-1.73-1.52-2.8H24.59z"/>
	<path fill-rule="evenodd" clip-rule="evenodd" fill="#1EE1E6" d="M43.3,45.44c0,0.65-0.22,0.86-0.87,0.86
		c-0.87,0-2.4-2.37-2.83-2.8v-1.08h0.65C41.34,42.42,43.3,45.221,43.3,45.44z M12.18,42.42c0.22,0.22,0.22,0,0.22,0.65
		c0,0.43-1.52,2.15-2.39,3.23H9.14c-0.22-0.21-0.22-0.21-0.22-0.86c0-0.43,1.31-1.94,2.18-3.02H12.18z M43.51,39.621
		c0.66,0.65,1.53,1.3,1.75,1.94c-0.22,0.22-0.44,0.65-0.88,0.65c-0.65,0-1.3-0.86-1.95-1.29l0.21-1.3H43.51z M9.57,39.621
		c0,0.22,0.22,0.22,0.22,0.65c0,0.65-1.74,1.94-2.17,1.94c-0.66,0-0.66-0.43-0.66-0.86c0-0.65,0.87-1.08,1.53-1.73H9.57z
		 M48.95,38.76c0,0.65-0.21,0.86-0.87,0.86c-0.43,0-2.39-1.29-3.48-1.93v-1.08h0.66C45.91,36.61,48.95,38.121,48.95,38.76z
		 M7.18,36.61c0.22,0.22,0.22,0,0.22,0.65c0,1.07-2.18,1.5-3.27,2.36H3.26c0-0.21-0.21-0.21-0.21-0.86c0-1.07,2.61-2.15,3.04-2.15
		H7.18z M47.65,33.161c0.65,0.22,1.74,0.43,1.74,1.08c0,0.65-0.87,0.86-1.09,0.86c-0.43,0-1.3-0.43-1.96-0.86v-1.08H47.65z
		 M5.66,33.161c0,0.22,0.21,0,0.21,0.65c0,0.43-2.17,1.29-2.39,1.29c-0.43,0-0.43-0.21-0.65-0.21v-1.08l1.3-0.65H5.66z M52,30.581
		c0,0.43-0.22,0.86-0.87,0.86s-3.92-0.86-3.92-1.51c0-0.86,0.66-0.64,0.87-0.64C49.17,29.291,52,29.931,52,30.581z M4.57,29.291
		c0,0.21,0.22,0.21,0.22,0.64c0,0.65-3.92,1.51-4.14,1.51c-0.43,0-0.65-0.43-0.65-0.86c0-1.29,2.39-1.08,3.26-1.29H4.57z
		 M50.48,25.63c0.21,0.21,0.21,0,0.21,0.64c0,0.86-1.3,0.86-1.52,0.86c-0.65,0-1.09-0.21-1.52-0.43l0.22-1.07H50.48z M4.35,25.63
		c0,0.21,0.22,0,0.22,0.43c0,1.29-1.31,1.07-1.52,1.07c-0.66,0-1.09,0-1.74-0.43l0.21-1.07H4.35z M51.78,21.101
		c0,0.22,0.22,0.22,0.22,0.65c0,0.65-3.92,1.51-3.92,1.51c-0.65,0-0.87-0.43-0.87-0.86c0-1.3,2.4-1.08,3.27-1.3H51.78z M4.79,22.4
		c0,0.43-0.22,0.86-0.87,0.86C3.26,23.26,0,22.4,0,21.75c0-0.86,0.65-0.65,0.87-0.65C1.96,21.101,4.79,21.75,4.79,22.4z
		 M49.17,17.44c0,0.22,0.22,0.22,0.22,0.65c0,0.43-2.18,1.51-2.39,1.51c-0.66,0-0.66-0.43-0.66-0.86c0-1.08,0.66-0.65,1.74-1.3
		H49.17z M5.87,18.741c0,0.43,0,0.21-0.21,0.64c-0.22,0-0.22,0.22-0.66,0.22c-0.65,0-1.52-0.65-2.17-0.86v-1.3h0.43
		C3.7,17.44,5.87,17.871,5.87,18.741z M48.74,12.92c0,0.22,0.21,0.22,0.21,0.65c0,0.64-3.48,2.58-3.69,2.58
		c-0.44,0-0.22-0.21-0.66-0.21v-1.08c0.87-0.65,1.96-1.29,3.05-1.94H48.74z M7.4,14.86v1.08c-0.22,0-0.22,0.21-0.87,0.21
		c-0.66,0-3.48-2.37-3.48-2.58c0-0.43,0.21-0.65,0.87-0.65C4.35,12.92,6.31,14.21,7.4,14.86z M45.04,10.34
		c0,0.21,0.22,0.21,0.22,0.64c0,0.65-1.53,1.94-2.18,1.94c-0.44,0-0.44-0.21-0.65-0.21v-1.08c0.43-0.43,1.08-0.86,1.52-1.29H45.04z
		 M8.05,10.34c0.65,0.64,1.74,1.29,1.74,1.72c0,0.65-0.22,0.43-0.22,0.65c-0.21,0-0.21,0.21-0.87,0.21c-0.43,0-1.08-0.86-1.74-1.29
		l0.22-1.29H8.05z M43.08,6.25c0,0.21,0.22,0,0.22,0.64c0,0.43-1.53,2.15-2.4,3.23h-1.08c-0.22-0.21-0.22-0.21-0.22-0.64
		c0-0.65,1.52-2.16,2.39-3.23H43.08z M10.01,6.25c0.65,0.86,1.74,1.93,2.39,2.79v0.87c-0.22,0.21-0.22,0.21-0.87,0.21
		c-0.65,0-1.74-1.72-2.61-2.58l0.22-1.29H10.01z M38.51,5.17c0.22,0.21,0.22,0,0.22,0.64c0,0.44-0.65,1.51-1.09,2.16h-0.87
		c-0.22-0.22-0.22-0.22-0.22-0.86c0-0.43,0.44-1.3,0.87-1.94H38.51z M15.67,7.11c0,0.64-0.44,0.86-0.88,0.86
		c-1.08,0-0.87-0.43-1.52-1.72V5.17h0.65C14.58,5.17,15.67,6.681,15.67,7.11z M30.68,2.371c0.22,1.72,0,2.15,0,2.8
		c-0.22,0-0.22,0.21-0.87,0.21c-1.09,0-0.66-1.29-0.66-1.29c0-0.43,0.22-1.07,0.44-1.72H30.68z M22.63,2.371c0,0.43,0,0.86,0.22,2.8
		c-0.22,0-0.22,0.21-0.88,0.21c-0.87,0-0.65-0.86-0.87-1.29l0.22-1.72H22.63z M35.46,1.94v1.08c-0.21,0.43-0.87,3.44-1.95,3.44
		c-0.44,0-0.22-0.21-0.66-0.21V5.17l1.31-3.23H35.46z M17.62,1.94c0.66,1.08,1.53,2.58,1.53,3.23v1.08c-0.22,0-0.22,0.21-0.87,0.21
		c-0.66,0-1.74-3.01-1.74-3.23V1.94h0.65H17.62z M26.76,0.431v4.52c-0.22,0-0.22,0.22-0.87,0.22c-0.43,0-0.43-0.22-0.65-0.43v-4.31
		C25.46,0.221,25.46,0,25.89,0C26.54,0,26.54,0.221,26.76,0.431z"/>
</g>
</svg>
