<?xml version="1.0" encoding="utf-8"?>
<!-- Generator: Adobe Illustrator 16.0.0, SVG Export Plug-In . SVG Version: 6.00 Build 0)  -->
<!DOCTYPE svg PUBLIC "-//W3C//DTD SVG 1.1//EN" "http://www.w3.org/Graphics/SVG/1.1/DTD/svg11.dtd">
<svg version="1.1" id="Layer_1" xmlns="http://www.w3.org/2000/svg" xmlns:xlink="http://www.w3.org/1999/xlink" x="0px" y="0px"
	 width="71px" height="75px" viewBox="0 0 71 75" enable-background="new 0 0 71 75" xml:space="preserve">
<path fill-rule="evenodd" clip-rule="evenodd" fill="#087FED" d="M51.61,58.102c0,4.14-5.92,3.18-6.58,3.18
	c-2.3,0-6.24,0.64-6.24-2.87c0-3.82,4.6-2.86,6.24-2.86C47.33,55.551,51.61,54.591,51.61,58.102z M52.92,42.481
	c2.63-0.64,3.29,1.91,3.29,2.87c0,0.32-0.66,2.87-2.3,2.87H35.83c-0.99-0.64-1.97-2.55-1.97-2.87c0-0.96,1.31-3.51,2.95-2.87H52.92z
	 M55.55,25.271c0,6.06-4.6,10.52-10.52,10.52c-6.24,0-10.52-5.1-10.52-10.52c0-6.69,4.93-9.88,10.52-9.88
	C51.94,15.392,55.55,20.492,55.55,25.271z M61.47,0.091c3.94-0.95,9.53,5.74,9.53,8.93v56.72c-0.33,4.47-5.59,9.25-9.53,9.25H23.01
	v-74.9H61.47z M16.44,0.091v74.9H8.22C5.26,75.312,0,69.571,0,67.341v-59.6c0-2.87,5.26-7.97,8.55-7.65H16.44z"/>
</svg>
