<svg width="52" height="55" viewBox="0 0 52 55" fill="none" xmlns="http://www.w3.org/2000/svg">
<path fill-rule="evenodd" clip-rule="evenodd" d="M28.5002 51.681V53.191H23.5002V51.681H28.5002ZM30.2402 35.101C30.2402 35.321 30.0302 35.751 29.5902 35.961C29.1502 35.751 28.7202 35.751 28.7202 35.101C28.7202 34.671 28.9402 34.891 28.9402 34.671C29.1502 34.671 28.9402 34.461 29.3702 34.461C30.0302 34.46 30.0302 34.891 30.2402 35.101ZM23.2802 35.101C23.2802 35.321 23.0602 35.751 22.6302 35.961C22.1902 35.751 21.7602 35.751 21.7602 35.101C21.7602 34.671 21.9702 34.891 21.9702 34.671C22.1902 34.671 21.9702 34.461 22.4102 34.461C23.0602 34.46 23.0602 34.891 23.2802 35.101ZM26.7602 34.67V49.75H25.2402V34.67C25.4602 34.46 25.4602 34.03 25.8902 34.03C26.5402 34.03 26.5402 34.46 26.7602 34.67ZM33.0702 32.951C33.0702 33.161 33.2902 33.381 33.2902 34.031C33.0702 34.241 32.8502 34.241 32.6402 34.461C32.4202 34.241 32.2002 34.241 31.9802 34.031L32.2002 32.951H33.0702ZM20.0202 33.161V34.031C19.8002 34.241 19.5802 34.241 19.3602 34.461C19.1502 34.241 18.7102 34.241 18.7102 33.591C18.7102 33.161 18.9302 33.161 19.1502 32.951L20.0202 33.161ZM35.4602 30.8C35.4602 31.01 35.2502 31.44 34.8102 31.66C34.3802 31.44 33.9402 31.44 33.9402 30.8C33.9402 30.36 34.1602 30.58 34.1602 30.36C34.3802 30.36 34.1602 30.15 34.5902 30.15C35.2502 30.15 35.2502 30.581 35.4602 30.8ZM18.0602 30.8C18.0602 31.01 17.8402 31.44 17.4102 31.66C16.9702 31.44 16.5402 31.44 16.5402 30.8C16.5402 30.36 16.7502 30.58 16.7502 30.36C16.9702 30.36 16.7502 30.15 17.1902 30.15C17.8402 30.15 17.8402 30.581 18.0602 30.8ZM32.2002 15.07C33.7202 17.23 35.4602 19.6 36.7702 21.97L25.8902 32.95L15.2302 21.97C16.5402 19.81 18.0602 17.44 19.8002 15.07H32.2002ZM43.3002 25.63C43.3002 34.67 35.0302 39.84 31.9802 49.75C31.7702 50.39 30.9002 51.04 30.2402 51.47C30.9002 55.35 28.0702 54.91 25.8902 54.91C24.3702 54.91 22.6302 55.35 21.9702 54.27C21.5402 53.41 21.7602 52.33 21.5402 51.47C19.5802 50.82 19.3602 48.24 18.7102 46.95C17.8402 44.58 16.5402 42.42 15.2302 40.49C13.7102 37.69 8.7002 31.23 8.7002 27.78V23.69C11.1002 13.14 18.2802 9.26001 25.8902 9.26001C35.6802 9.26001 43.3002 16.371 43.3002 25.63Z" fill="#1EE1E6"/>
<path fill-rule="evenodd" clip-rule="evenodd" d="M33.7198 22.831L28.0698 28.861C28.2798 26.921 28.9398 24.771 29.5898 22.831H33.7198ZM27.6298 22.831C27.1998 24.331 26.7598 26.061 26.3298 27.781C26.1098 27.781 26.1098 28.001 25.8898 28.2111C25.4598 26.491 24.7998 24.551 24.3698 22.831H27.6298ZM22.4098 22.831C22.8498 24.771 23.4998 26.701 23.9298 28.861L18.2798 22.831H22.4098ZM34.1598 20.8911H30.6798V20.241C31.1098 19.601 31.5498 18.741 31.9798 18.091C32.6398 18.3 33.5098 19.8111 34.1598 20.8911ZM27.6298 20.8911H24.5898C24.7998 20.0311 25.4598 18.951 25.8898 18.091C26.5398 18.741 27.1998 19.8111 27.6298 20.8911ZM21.5398 20.8911H17.8398C18.2798 20.0311 19.1498 18.951 19.5798 18.091C20.4498 18.3 20.6698 19.8111 21.5398 20.8911ZM30.4598 16.8L29.1498 19.38C28.7198 18.74 28.0698 17.66 27.6298 16.8H30.4598ZM24.5898 16.8C24.1498 17.66 23.4998 18.74 23.0598 19.6C22.6298 18.95 21.9698 17.87 21.5398 16.8H24.5898Z" fill="#1EE1E6"/>
<path fill-rule="evenodd" clip-rule="evenodd" d="M43.3 45.44C43.3 46.09 43.08 46.3 42.43 46.3C41.56 46.3 40.03 43.93 39.6 43.5V42.42H40.25C41.34 42.42 43.3 45.221 43.3 45.44ZM12.18 42.42C12.4 42.64 12.4 42.42 12.4 43.07C12.4 43.5 10.88 45.22 10.01 46.3H9.14C8.92 46.09 8.92 46.09 8.92 45.44C8.92 45.01 10.23 43.5 11.1 42.42H12.18ZM43.51 39.621C44.17 40.271 45.04 40.921 45.26 41.561C45.04 41.781 44.82 42.211 44.38 42.211C43.73 42.211 43.08 41.351 42.43 40.921L42.64 39.621H43.51ZM9.57 39.621C9.57 39.841 9.79 39.841 9.79 40.271C9.79 40.921 8.05 42.211 7.62 42.211C6.96 42.211 6.96 41.781 6.96 41.351C6.96 40.701 7.83 40.271 8.49 39.621H9.57ZM48.95 38.76C48.95 39.41 48.74 39.62 48.08 39.62C47.65 39.62 45.69 38.33 44.6 37.69V36.61H45.26C45.91 36.61 48.95 38.121 48.95 38.76ZM7.18 36.61C7.4 36.83 7.4 36.61 7.4 37.26C7.4 38.33 5.22 38.76 4.13 39.62H3.26C3.26 39.41 3.05 39.41 3.05 38.76C3.05 37.69 5.66 36.61 6.09 36.61H7.18ZM47.65 33.161C48.3 33.381 49.39 33.591 49.39 34.241C49.39 34.891 48.52 35.101 48.3 35.101C47.87 35.101 47 34.671 46.34 34.241V33.161H47.65ZM5.66 33.161C5.66 33.381 5.87 33.161 5.87 33.811C5.87 34.241 3.7 35.101 3.48 35.101C3.05 35.101 3.05 34.891 2.83 34.891V33.811L4.13 33.161H5.66ZM52 30.581C52 31.011 51.78 31.441 51.13 31.441C50.48 31.441 47.21 30.581 47.21 29.931C47.21 29.071 47.87 29.291 48.08 29.291C49.17 29.291 52 29.931 52 30.581ZM4.57 29.291C4.57 29.501 4.79 29.501 4.79 29.931C4.79 30.581 0.87 31.441 0.65 31.441C0.22 31.441 0 31.011 0 30.581C0 29.291 2.39 29.501 3.26 29.291H4.57ZM50.48 25.63C50.69 25.84 50.69 25.63 50.69 26.27C50.69 27.13 49.39 27.13 49.17 27.13C48.52 27.13 48.08 26.92 47.65 26.7L47.87 25.63H50.48ZM4.35 25.63C4.35 25.84 4.57 25.63 4.57 26.06C4.57 27.35 3.26 27.13 3.05 27.13C2.39 27.13 1.96 27.13 1.31 26.7L1.52 25.63H4.35ZM51.78 21.101C51.78 21.321 52 21.321 52 21.751C52 22.401 48.08 23.261 48.08 23.261C47.43 23.261 47.21 22.831 47.21 22.401C47.21 21.101 49.61 21.321 50.48 21.101H51.78ZM4.79 22.4C4.79 22.83 4.57 23.26 3.92 23.26C3.26 23.26 0 22.4 0 21.75C0 20.89 0.65 21.1 0.87 21.1C1.96 21.101 4.79 21.75 4.79 22.4ZM49.17 17.44C49.17 17.66 49.39 17.66 49.39 18.09C49.39 18.52 47.21 19.6 47 19.6C46.34 19.6 46.34 19.17 46.34 18.74C46.34 17.66 47 18.09 48.08 17.44H49.17ZM5.87 18.741C5.87 19.171 5.87 18.951 5.66 19.381C5.44 19.381 5.44 19.601 5 19.601C4.35 19.601 3.48 18.951 2.83 18.741V17.441H3.26C3.7 17.44 5.87 17.871 5.87 18.741ZM48.74 12.92C48.74 13.14 48.95 13.14 48.95 13.57C48.95 14.21 45.47 16.15 45.26 16.15C44.82 16.15 45.04 15.94 44.6 15.94V14.86C45.47 14.21 46.56 13.57 47.65 12.92H48.74ZM7.4 14.86V15.94C7.18 15.94 7.18 16.15 6.53 16.15C5.87 16.15 3.05 13.78 3.05 13.57C3.05 13.14 3.26 12.92 3.92 12.92C4.35 12.92 6.31 14.21 7.4 14.86ZM45.04 10.34C45.04 10.55 45.26 10.55 45.26 10.98C45.26 11.63 43.73 12.92 43.08 12.92C42.64 12.92 42.64 12.71 42.43 12.71V11.63C42.86 11.2 43.51 10.77 43.95 10.34H45.04ZM8.05 10.34C8.7 10.98 9.79 11.63 9.79 12.06C9.79 12.71 9.57 12.49 9.57 12.71C9.36 12.71 9.36 12.92 8.7 12.92C8.27 12.92 7.62 12.06 6.96 11.63L7.18 10.34H8.05ZM43.08 6.25C43.08 6.46 43.3 6.25 43.3 6.89C43.3 7.32 41.77 9.04 40.9 10.12H39.82C39.6 9.91 39.6 9.91 39.6 9.48C39.6 8.83 41.12 7.32 41.99 6.25H43.08ZM10.01 6.25C10.66 7.11 11.75 8.18 12.4 9.04V9.91C12.18 10.12 12.18 10.12 11.53 10.12C10.88 10.12 9.79 8.4 8.92 7.54L9.14 6.25H10.01ZM38.51 5.17C38.73 5.38 38.73 5.17 38.73 5.81C38.73 6.25 38.08 7.32 37.64 7.97H36.77C36.55 7.75 36.55 7.75 36.55 7.11C36.55 6.68 36.99 5.81 37.42 5.17H38.51ZM15.67 7.11C15.67 7.75 15.23 7.97 14.79 7.97C13.71 7.97 13.92 7.54 13.27 6.25V5.17H13.92C14.58 5.17 15.67 6.681 15.67 7.11ZM30.68 2.371C30.9 4.091 30.68 4.521 30.68 5.171C30.46 5.171 30.46 5.381 29.81 5.381C28.72 5.381 29.15 4.091 29.15 4.091C29.15 3.661 29.37 3.021 29.59 2.371H30.68ZM22.63 2.371C22.63 2.801 22.63 3.231 22.85 5.171C22.63 5.171 22.63 5.381 21.97 5.381C21.1 5.381 21.32 4.521 21.1 4.091L21.32 2.371H22.63ZM35.46 1.94V3.02C35.25 3.45 34.59 6.46 33.51 6.46C33.07 6.46 33.29 6.25 32.85 6.25V5.17L34.16 1.94H35.46ZM17.62 1.94C18.28 3.02 19.15 4.52 19.15 5.17V6.25C18.93 6.25 18.93 6.46 18.28 6.46C17.62 6.46 16.54 3.45 16.54 3.23V1.94H17.19H17.62ZM26.76 0.431V4.951C26.54 4.951 26.54 5.171 25.89 5.171C25.46 5.171 25.46 4.951 25.24 4.741V0.431C25.46 0.221 25.46 0 25.89 0C26.54 0 26.54 0.221 26.76 0.431Z" fill="#1EE1E6"/>
</svg>
