<svg width="59" height="55" viewBox="0 0 59 55" fill="none" xmlns="http://www.w3.org/2000/svg">
<g clip-path="url(#clip0_22_1917)">
<path fill-rule="evenodd" clip-rule="evenodd" d="M54.59 44.46C55.75 45.15 57.61 45.83 59 46.29C56.68 48.58 55.52 52.25 56.21 54.77C54.35 54.31 52.26 53.62 51.57 53.62C51.1 53.62 48.55 54.54 47.15 55C46.92 54.77 46.92 54.31 46.92 50.87C46.22 49.5 45.3 47.9 44.37 46.52C45.53 45.83 47.15 45.37 48.55 44.46C49.48 43.77 50.41 42.4 51.33 41.25C52.03 41.25 53.19 43.77 54.59 44.46ZM32.75 44.69C33.68 45.37 35.31 45.83 36.7 46.29C36 47.44 34.61 48.58 34.15 50.19C33.68 51.56 34.15 53.4 33.91 55C32.52 54.54 29.96 53.62 29.27 53.62C28.8 53.62 26.25 54.54 24.85 55C24.62 53.4 24.85 51.56 24.39 50.19C23.93 48.81 22.76 47.67 22.07 46.52C23.23 45.83 24.62 45.6 26.02 44.69C27.18 44 28.34 42.4 29.27 41.25C30.43 42.17 31.13 43.77 32.75 44.69ZM10.22 44.46C11.38 45.37 13.24 45.83 14.63 46.29C13.7 47.67 12.54 49.27 11.85 50.87L11.61 55C10.22 54.54 7.67 53.62 7.2 53.62C6.5 53.62 4.65 54.31 2.56 54.77C3.02 51.1 1.16 48.58 0 46.29C2.56 45.37 4.88 44.23 6.97 41.25C7.9 41.94 8.83 43.54 10.22 44.46ZM38.33 11.23L34.15 15.35H11.85V18.56H31.82V23.15H11.85V26.35H40.88L52.73 15.58V35.52C52.73 35.75 52.26 35.75 51.8 35.75C49.94 35.75 47.15 32.31 45.3 30.94H10.45C9.52 30.48 6.04 28.42 6.04 26.81V15.12C6.04 13.75 8.83 10.77 10.22 11.23H38.33ZM52.26 10.77L39.72 23.15H35.77V18.56L47.85 6.87C49.48 8.02 50.87 9.4 52.26 10.77ZM59 2.98C59 4.58 57.37 5.73 55.05 8.25C53.66 7.1 52.03 5.5 50.64 4.12C52.73 1.83 53.66 0 55.98 0C58.07 0 59 1.37 59 2.98Z" fill="#1EE1E6"/>
</g>
<defs>
<clipPath id="clip0_22_1917">
<rect width="59" height="55" fill="white"/>
</clipPath>
</defs>
</svg>
