<svg width="54" height="55" viewBox="0 0 54 55" fill="none" xmlns="http://www.w3.org/2000/svg">
<g clip-path="url(#clip0_22_1919)">
<path fill-rule="evenodd" clip-rule="evenodd" d="M42.56 39.26V50.26H38.54V39.26H42.56ZM20.12 34.521V41.201H11.44V34.521H20.12ZM42.56 32.371V36.461H38.54V32.371H42.56ZM54 41.201C54 49.181 47.65 55.001 40.45 55.001C35.79 55.001 29.65 52.201 27.53 45.301C27.32 44.651 27.11 43.791 27.11 43.361V39.261C28.59 31.071 34.94 27.621 40.45 27.621C48.28 27.621 54 33.871 54 41.201ZM29.22 23.101V26.981C28.38 27.621 27.32 28.701 26.47 29.781H11.44V23.101H29.22ZM29.22 11.671V18.351H11.44V11.671H29.22ZM33.46 0.0310222C35.36 -0.398978 40.45 3.70102 40.45 6.50102V22.881C38.54 22.671 35.58 23.101 33.88 24.171V7.58102C33.67 7.36102 33.25 6.71102 32.61 6.71102H7.62C7.2 6.93102 6.56 7.14102 6.56 7.79102V48.321H23.72C24.35 50.041 26.26 53.061 28.38 55.001H0V6.50102C0 3.91102 3.81 -0.178978 6.78 0.0310222H33.46Z" fill="#1EE1E6"/>
</g>
<defs>
<clipPath id="clip0_22_1919">
<rect width="54" height="55" fill="white"/>
</clipPath>
</defs>
</svg>
