<svg width="55" height="55" viewBox="0 0 55 55" fill="none" xmlns="http://www.w3.org/2000/svg">
<g clip-path="url(#clip0_22_1802)">
<path fill-rule="evenodd" clip-rule="evenodd" d="M41.47 37.2271C39.5 37.2271 37.32 37.4471 34.27 37.8871V33.9071C36.45 33.4571 38.85 33.2371 41.47 33.0171V37.2271ZM20.52 33.9071V37.8871C17.68 37.4471 15.5 37.2271 13.31 37.2271V33.0171C15.93 33.2371 18.33 33.4571 20.52 33.9071ZM43.87 30.1371L44.52 30.8071V39.4371C44.31 39.6571 43.43 40.3271 43 40.3271C40.81 40.3271 38.63 40.5471 36.45 40.7671C35.14 40.9871 33.17 41.6571 32.52 41.6571C32.08 41.6571 31.87 41.2171 31.43 40.9871V31.6871C32.96 30.1371 35.14 30.5771 37.1 30.1371H43.87ZM23.57 31.9071V40.5471C23.35 40.9871 22.7 41.6571 22.04 41.6571C21.61 41.6571 19.64 40.7671 18.33 40.7671C15.5 40.5471 13.1 40.9871 10.48 39.8871V30.1371H14.4C17.24 30.1371 20.52 29.6971 23.57 31.9071ZM43.87 24.8271C44.31 25.2671 44.52 25.4871 44.52 25.9271C44.52 26.5971 44.09 27.2571 43.65 27.2571C40.16 27.9271 33.39 28.5871 32.74 28.5871C31.43 28.5871 31.43 27.7071 31.43 27.0371C31.43 24.8271 36.23 25.0471 37.1 24.8271H43.87ZM23.57 27.0371C23.57 28.3671 22.26 28.5871 21.83 28.5871C21.39 28.5871 14.62 27.7071 11.13 27.2571C10.48 26.8171 10.48 25.9271 10.48 25.9271C10.48 25.4871 10.48 25.2671 10.91 24.8271C11.79 24.8271 23.57 24.1571 23.57 27.0371ZM4.8 17.0671V45.1971C5.67 46.3071 6.33 46.3071 6.77 46.3071C7.42 46.3071 11.57 45.8671 12.22 45.8671C20.52 45.8671 25.32 48.9671 27.28 48.9671C29.25 48.9671 34.05 45.8671 42.56 45.8671C43 45.8671 47.36 46.3071 47.8 46.3071C48.67 46.3071 49.11 46.3071 49.98 45.1971V17.0671H51.94V47.8571C50.85 48.0771 49.33 47.8571 48.67 47.8571C43 47.8571 36.88 49.4071 31.43 51.6171C30.12 52.0671 27.94 51.8471 27.28 51.8471C26.85 51.8471 24.44 52.0671 23.35 51.6171C16.59 48.7471 11.13 48.0771 4.37 48.0771H2.84V17.0671H4.8ZM15.06 2.00708L14.84 20.1771V10.8671H12.88C11.35 11.3171 9.6 11.5371 7.86 12.1971V42.7671C8.29 42.9871 8.95 42.5371 14.84 42.7671C18.12 42.7671 22.04 43.4271 25.75 45.1971L26.19 23.7171C26.63 24.1571 26.85 24.3771 27.28 24.3771C27.94 24.3771 28.15 24.1571 28.81 23.7171V45.1971C30.12 44.7571 37.1 42.7671 39.5 42.7671H46.71L46.92 12.1971C45.4 11.7571 42.34 10.8671 41.69 10.8671H39.72V20.1771V2.00708H40.16V7.76708C42.34 7.98708 44.74 8.21708 46.92 8.87708C47.36 9.09708 49.33 9.09708 49.54 10.4271C49.76 11.3171 49.76 12.6471 49.76 13.9671C49.98 13.9671 55 13.7471 55 16.1871V50.5171C54.13 52.2871 52.38 51.1771 51.29 51.1771H46.05C32.74 52.7271 36.88 54.9471 27.28 54.9471C26.85 54.9471 23.79 55.1671 22.48 54.7271C20.95 54.4971 19.86 53.6171 18.55 53.1671C15.28 52.0671 11.57 51.1771 8.29 51.1771C2.62 50.9571 1.31 51.3971 0 50.9571V15.7471C0.87 13.7471 2.84 13.7471 5.02 13.9671V11.5371V10.4271C7.64 8.21708 11.35 8.21708 14.62 7.76708V2.00708H15.06Z" fill="#1EE1E6"/>
<path fill-rule="evenodd" clip-rule="evenodd" d="M37.0998 2.89709V19.0671H29.4598C28.8098 19.5071 28.1498 20.1771 27.4998 20.8371C26.6298 20.1771 25.3198 19.0671 24.6598 19.0671H17.6798V2.89709H37.0998ZM37.0998 0.0170909C37.5398 0.0170909 39.9398 1.12709 39.9398 2.23709V19.5071C39.4998 20.6171 38.1898 21.9471 37.5398 21.9471H30.5598C29.4598 23.0471 28.1498 24.5971 27.2798 24.5971C26.4098 24.5971 25.0998 23.0471 24.2298 21.9471H17.0198C16.1498 21.4971 14.8398 20.1771 14.8398 19.7271V2.23709C15.0598 1.56709 16.3698 -0.202909 17.4598 0.0170909H37.0998Z" fill="#1EE1E6"/>
<path fill-rule="evenodd" clip-rule="evenodd" d="M29.6799 10.6472C29.0299 11.9772 27.9399 11.7572 28.8099 13.5272C28.3699 13.3072 27.9399 12.8672 27.2799 12.8672C26.8499 12.8672 26.4099 13.3072 25.9699 13.5272C25.9699 12.4172 26.4099 12.8672 25.0999 10.6472C25.7499 10.4272 27.0599 9.76721 27.2799 9.09721C27.4999 9.09721 28.8099 11.0872 29.6799 10.6472ZM27.9399 4.88721C28.5899 5.99721 29.0299 7.10721 29.8999 7.98721C30.3399 8.43721 33.8299 7.76721 33.8299 9.76721C33.8299 10.2072 31.2099 12.4172 31.2099 12.8672C31.2099 13.5272 31.8699 15.5172 31.8699 15.9672C31.8699 16.6272 30.9899 17.2972 30.5599 17.2972C29.8999 17.2972 27.9399 15.7472 27.2799 15.7472C26.8499 15.7472 24.6599 17.2972 24.0099 17.2972C23.5699 17.2972 22.9199 16.6272 22.9199 15.9672C22.9199 15.5172 23.5699 13.5272 23.5699 12.8672C23.5699 12.4172 21.1699 11.0872 21.1699 9.76721C21.1699 7.98721 23.5699 8.87721 24.8799 7.98721C25.7499 7.32721 26.1899 5.99721 26.6299 4.88721H27.9399Z" fill="#1EE1E6"/>
</g>
<defs>
<clipPath id="clip0_22_1802">
<rect width="55" height="55" fill="white"/>
</clipPath>
</defs>
</svg>
