<svg width="54" height="55" viewBox="0 0 54 55" fill="none" xmlns="http://www.w3.org/2000/svg">
<path fill-rule="evenodd" clip-rule="evenodd" d="M14.8529 40.349C14.6029 41.829 14.3629 43.059 14.1229 44.279H10.2629V43.179C10.5029 42.319 10.7429 41.339 10.8629 40.349H14.8529ZM46.6329 41.209C46.8829 41.339 47.1229 41.829 47.1229 42.199C47.1229 42.559 46.6329 43.299 46.3929 43.419C45.7929 43.789 40.6829 47.369 40.0829 47.369C39.6029 47.369 38.7529 46.759 38.7529 46.269V38.249C38.7529 37.629 39.3629 37.139 40.0829 37.139C40.8029 37.139 46.6329 41.209 46.6329 41.209ZM11.8329 35.439C11.8329 35.679 11.2229 37.769 11.2229 38.139C11.2229 38.389 11.3429 38.389 11.4729 38.509H15.2129C15.6929 37.649 15.5729 35.559 16.1729 34.949C16.2929 34.699 16.5429 34.579 16.7829 34.579C17.3829 34.579 18.6229 35.189 18.6229 35.439C18.6229 35.679 18.0229 37.769 18.0229 38.139C18.0229 38.389 18.1429 38.389 18.2629 38.509H19.9229C20.5229 38.759 20.6429 38.879 20.6429 39.249C20.6429 39.489 20.4029 40.109 19.9229 40.109H17.7829C17.4229 41.339 16.8129 43.669 16.8129 43.919C16.8129 44.279 16.9329 44.279 17.0529 44.409H18.7129C19.0729 44.529 19.4329 44.899 19.4329 45.139C19.4329 45.509 19.0729 45.999 18.7129 45.999H16.5729C16.2129 47.109 15.8529 48.339 15.4829 49.569C15.3629 49.809 14.2429 49.939 13.8829 49.939C13.2829 49.939 13.1629 49.199 13.1629 49.079C13.1629 48.829 13.7629 46.619 13.7629 46.369C13.7629 45.999 13.6429 46.129 13.5229 45.999H9.77293C9.41293 47.109 9.05293 48.339 8.69293 49.569C8.57293 49.809 8.45293 49.939 8.08293 49.939C7.48293 49.939 6.36293 49.199 6.36293 49.079C6.36293 48.829 6.96293 46.619 6.96293 46.369C6.96293 45.999 6.84293 46.129 6.72293 45.999H4.95293C4.70293 45.879 4.34293 45.509 4.34293 45.139C4.34293 44.899 4.58293 44.409 4.95293 44.409H7.21293C7.57293 43.179 8.17293 40.839 8.17293 40.599C8.17293 40.229 8.05293 40.229 7.93293 40.109H6.15293C5.91293 39.979 5.55293 39.619 5.55293 39.249C5.55293 38.999 5.79293 38.509 6.15293 38.509L8.43293 38.469C8.92293 37.619 8.77293 35.559 9.38293 34.949C9.50293 34.699 10.7429 34.579 10.9829 34.579C11.5929 34.579 11.8329 35.189 11.8329 35.439ZM53.8429 39.979C54.0929 40.599 53.9629 41.949 53.9629 42.199C53.9629 47.849 51.0729 53.129 43.7029 54.849C42.9829 55.089 41.7729 54.969 41.4129 54.969C36.9429 54.969 32.4729 53.249 29.7029 47.109C29.3329 46.249 28.9729 44.779 28.9729 44.529V39.979C31.1529 31.999 36.1029 29.539 41.4129 29.539C46.9629 29.539 52.1529 32.239 53.8429 39.979ZM14.7329 29.539C22.0929 31.139 25.1129 36.909 25.1129 42.199C25.1129 47.599 21.7329 53.369 14.7329 54.849C14.0029 54.969 12.7929 54.969 12.4329 54.969C7.96293 54.969 3.50293 53.249 0.72293 47.109C0.36293 46.249 0.00292969 44.779 0.00292969 44.529V39.979C2.17293 31.999 7.12293 29.539 12.4329 29.539C12.7929 29.539 14.0029 29.419 14.7329 29.539ZM42.4929 12.709C42.4929 13.449 41.7729 13.819 41.4129 13.819C40.5629 13.819 40.5629 13.079 40.5629 12.709C40.5629 11.849 40.8029 11.849 41.4129 11.849C42.1329 11.849 42.4929 12.099 42.4929 12.709ZM44.1929 12.709C44.1929 14.429 42.7429 15.539 41.4129 15.539C39.7229 15.539 38.7529 14.059 38.7529 12.709C38.7529 10.989 40.0829 10.009 41.4129 10.009C43.1029 10.009 44.1929 11.359 44.1929 12.709ZM44.8829 8.919C45.0029 9.039 45.3629 9.169 45.3629 9.529V15.889C45.2429 16.259 44.8829 16.749 44.5129 16.749H38.3029C38.1829 16.629 37.9429 16.499 37.7029 16.259V9.289L38.0629 8.919H44.8829ZM45.2729 6.079C46.3629 6.079 48.0529 7.059 48.0529 8.529V16.889C48.0529 17.989 46.6029 19.469 45.5129 19.469H37.3029C36.2229 19.469 34.8929 17.989 34.8929 17.009V8.529C34.7729 7.549 36.3429 5.829 37.5429 6.079H45.2729ZM15.5729 5.339C15.5729 6.569 14.7629 5.949 14.1629 6.199C13.7929 6.319 12.8329 7.179 12.9529 7.799C13.1929 10.499 13.0729 10.619 12.9529 10.749H14.8529C15.3329 10.989 15.5729 11.359 15.5729 11.479C15.5729 11.849 15.3329 12.339 14.8529 12.339H12.9529V20.449C12.8329 20.699 11.4729 20.939 11.2229 20.939C10.8629 20.939 10.6229 20.699 10.5029 20.449V12.589C9.77293 12.099 7.48293 13.079 7.48293 11.479C7.48293 10.009 9.77293 10.869 10.5029 10.499V7.059C11.3429 4.849 12.5529 4.599 14.1229 4.599C14.7329 4.599 15.5729 4.479 15.5729 5.339ZM53.8429 10.499C54.0929 11.109 53.9629 12.469 53.9629 12.709C53.9629 13.079 53.9629 14.309 53.8429 15.049C52.2729 22.539 46.6029 25.609 41.4129 25.609C37.0629 25.609 32.2329 23.399 29.7029 17.629C29.3329 16.769 28.9729 15.289 28.9729 15.049V10.499C31.1529 2.509 36.1029 0.0589985 41.4129 0.0589985C46.9629 0.0589985 52.1529 2.759 53.8429 10.499ZM14.7329 0.0589985C22.0929 1.649 25.1129 7.429 25.1129 12.709C25.1129 19.959 19.3129 25.609 12.4329 25.609C8.08293 25.609 3.25293 23.399 0.72293 17.629C0.36293 16.769 0.00292969 15.289 0.00292969 15.049V10.499C2.17293 2.509 7.12293 0.0589985 12.4329 0.0589985C12.7929 0.0589985 14.0029 -0.0710015 14.7329 0.0589985Z" fill="#1EE1E6"/>
</svg>
