<svg width="55" height="55" viewBox="0 0 55 55" fill="none" xmlns="http://www.w3.org/2000/svg">
<path fill-rule="evenodd" clip-rule="evenodd" d="M20.493 43.5688C20.493 46.5888 15.96 45.9488 14.881 45.9488C13.16 45.9488 9.279 46.3788 9.279 43.5688C9.279 40.5588 13.16 41.4188 14.881 41.4188C15.96 41.4188 20.493 40.5598 20.493 43.5688ZM23.293 32.3588C24.373 32.3588 25.238 33.8688 25.238 34.2988C25.238 34.9488 24.159 36.6788 23.079 36.6788H11C8.841 36.2388 9.278 34.9488 9.278 34.2988C9.278 33.4388 8.84 33.0088 10.786 32.3588H23.293ZM42.493 30.2088C44 31.9288 45.08 34.0888 46.16 35.8088C47.667 36.4588 55.001 35.3788 55.001 39.0488C55.001 41.4188 49.389 44.6488 49.389 46.1588C49.389 46.5888 50.468 52.1988 50.468 52.6288C50.468 54.5688 48.747 54.9988 48.095 54.9988C47.667 54.9988 41.627 51.7688 41.199 51.7688C40.547 51.7688 34.945 54.9988 34.293 54.9988C32.786 54.9988 32.572 53.9188 32.134 52.6288L33 46.3788C32.348 44.8688 27.612 40.7688 27.612 39.0488C27.612 35.3788 34.945 36.4588 36.239 35.8088C37.96 34.9488 38.388 29.9888 41.199 29.9888C41.841 29.9898 42.055 29.7788 42.493 30.2088ZM34.721 23.0888C36.014 23.0888 36.666 24.3888 36.666 25.2488C36.666 28.0488 31.706 27.4088 30.84 27.4088C28.681 27.4088 25.453 28.0488 25.453 25.0288C25.453 24.1688 25.015 23.7388 26.96 23.0888H34.721ZM20.493 25.2498C20.493 28.0498 15.96 27.4098 14.881 27.4098C13.16 27.4098 9.279 28.0498 9.279 25.2498C9.279 22.2298 13.16 23.0898 14.881 23.0898C16.612 23.0888 20.493 22.2288 20.493 25.2498ZM25.015 9.07983C25.015 10.5898 23.946 11.2398 22.866 11.2398C21.573 11.2398 20.707 10.1598 20.707 9.07983C20.707 7.78983 21.573 6.92982 22.866 6.92982C23.945 6.92982 25.015 7.78983 25.015 9.07983ZM18.12 9.07983C18.12 10.5898 17.04 11.2398 15.96 11.2398C14.667 11.2398 13.801 10.1598 13.801 9.07983C13.801 7.78983 14.667 6.92982 15.96 6.92982C17.04 6.92982 18.12 7.78983 18.12 9.07983ZM11.214 9.07983C11.214 10.5898 10.134 11.2398 9.055 11.2398C7.762 11.2398 6.906 10.1598 6.906 9.07983C6.906 7.78983 7.762 6.92982 9.055 6.92982C10.134 6.92982 11.214 7.78983 11.214 9.07983ZM52.841 0.0288252C53.279 -0.190175 55 0.889825 55 1.53983V28.0498C54.572 28.4798 53.493 29.7798 52.841 29.7798C51.986 29.7798 50.467 28.6998 50.467 27.6198V18.3498H4.533V50.4698H25.015C25.667 50.6898 26.095 50.4698 26.533 50.8998C26.961 51.3398 27.389 52.1998 27.389 52.8398C27.389 53.2798 26.747 54.9998 25.668 54.9998H1.507C1.08 54.7788 0 53.9188 0 53.4898V1.53983C0.214 1.10983 1.293 0.0298252 1.945 0.0298252H52.841V0.0288252Z" fill="#1EE1E6"/>
</svg>
