<?xml version="1.0" encoding="utf-8"?>
<!-- Generator: Adobe Illustrator 16.0.0, SVG Export Plug-In . SVG Version: 6.00 Build 0)  -->
<!DOCTYPE svg PUBLIC "-//W3C//DTD SVG 1.1//EN" "http://www.w3.org/Graphics/SVG/1.1/DTD/svg11.dtd">
<svg version="1.1" xmlns="http://www.w3.org/2000/svg" xmlns:xlink="http://www.w3.org/1999/xlink" x="0px" y="0px" width="1000px"
	 height="1000px" viewBox="0 0 1000 1000" enable-background="new 0 0 1000 1000" xml:space="preserve">
<g id="Layer_1" display="none">
	<g display="inline">
		<path fill-rule="evenodd" clip-rule="evenodd" fill="#0095FF" d="M336.07,546.05c0.86-0.61,1.39-1.399,1.58-2.38
			c0.18-0.97,0.28-1.98,0.28-3.01v-12.591c0.17-1.02,0.8-1.919,1.89-2.719c1.08-0.79,2.25-1.2,3.53-1.2c0.98,0,1.83,0.22,2.53,0.64
			c0.71,0.42,1.23,0.99,1.62,1.72c0.36,0.73,0.55,1.591,0.55,2.61v11.41c0,1.12,0.09,2.17,0.28,3.14c0.19,0.98,0.75,1.77,1.66,2.38
			c0.9,0.601,2.4,0.9,4.46,0.9c2.16,0,3.67-0.32,4.55-0.931c0.86-0.63,1.39-1.409,1.58-2.369c0.18-0.97,0.28-1.961,0.28-2.99
			v-11.471c0-3.35-0.71-6.359-2.11-9.02c-1.41-2.65-3.31-4.76-5.7-6.32c-2.4-1.56-5.1-2.34-8.09-2.34c-1.6,0-2.99,0.351-4.19,1.021
			s-2.14,1.34-2.84,1.979v-12.74c0-1.06-0.1-2.069-0.28-3.029c-0.19-0.96-0.72-1.75-1.58-2.37c-0.88-0.63-2.36-0.95-4.47-0.95
			s-3.62,0.31-4.5,0.9c-0.89,0.62-1.44,1.39-1.63,2.35c-0.19,0.96-0.27,1.97-0.27,3.05v38.87c0,1.03,0.07,2.03,0.24,3.011
			c0.17,0.989,0.69,1.789,1.59,2.419c0.88,0.61,2.39,0.931,4.49,0.931C333.68,546.95,335.19,546.65,336.07,546.05z"/>
		<path fill-rule="evenodd" clip-rule="evenodd" fill="#0095FF" d="M470.07,516.78l0.665-0.155c0-0.381,0.366-0.325,0.186-0.995
			c-0.19-0.67-0.72-1.3-1.58-1.85c-0.88-0.561-2.35-0.85-4.4-0.85c-2.11,0-3.62,0.31-4.51,0.919c-0.89,0.61-1.44,1.381-1.61,2.331
			c-0.19,0.959-0.28,1.97-0.28,3.039v22.811c0,1.02,0.07,2.03,0.25,3.039c0.16,1.011,0.69,1.82,1.58,2.45
			c0.88,0.61,2.39,0.931,4.5,0.931c2.15,0,3.68-0.311,4.57-0.9c0.88-0.619,1.42-1.399,1.61-2.38c0.19-0.97,0.29-1.98,0.29-3.01
			V528.52c0-0.51,0.12-0.989,0.36-1.43c0.23-0.43,0.57-0.83,1.01-1.15c0.44-0.319,0.96-0.569,1.55-0.739
			c0.59-0.16,1.23-0.25,1.93-0.25c0.56,0,0.94,0.06,1.16,0.18c0.21,0.11,0.4,0.23,0.56,0.351c0.16,0.109,0.42,0.229,0.8,0.339
			c0.39,0.12,1.02,0.181,1.91,0.181c1.64,0,2.96-0.819,3.97-2.45c1.01-1.63,1.52-3.61,1.52-5.939c0-0.88-0.2-1.62-0.6-2.23
			c-0.41-0.61-0.92-1.09-1.55-1.47c-0.64-0.37-1.32-0.641-2.04-0.83c-0.73-0.19-1.4-0.32-2.03-0.399
			c-0.65-0.051-1.18-0.101-1.59-0.101c-1.27,0-2.41,0.22-3.41,0.63c-1.01,0.42-1.88,0.92-2.61,1.471"/>
		<path fill-rule="evenodd" clip-rule="evenodd" fill="#0095FF" d="M502.89,533.46c-0.79-0.47-1.439-1.06-1.93-1.82
			c-0.5-0.739-0.74-1.56-0.74-2.45c0-0.93,0.24-1.77,0.71-2.55c0.469-0.76,1.079-1.38,1.859-1.85c0.76-0.46,1.62-0.7,2.56-0.7
			c0.94,0,1.771,0.24,2.54,0.7c0.74,0.47,1.341,1.08,1.78,1.82c0.44,0.75,0.68,1.579,0.68,2.51c0,0.89-0.239,1.72-0.68,2.49
			c-0.439,0.77-1.02,1.38-1.75,1.85c-0.739,0.471-1.54,0.7-2.42,0.7C504.561,534.16,503.681,533.931,502.89,533.46z M521.63,545.92
			c0.86-0.609,1.39-1.4,1.58-2.39c0.19-0.98,0.3-1.98,0.3-3V517.8c0-1.02-0.109-2.03-0.3-3.02c-0.19-0.97-0.72-1.771-1.58-2.4
			s-2.34-0.949-4.449-0.949c-2.111,0-3.681,0.339-4.69,0.979c-1.01,0.65-1.5,1.56-1.44,2.72h0.78c-0.24-0.36-0.71-0.83-1.38-1.38
			c-0.671-0.55-1.57-1.08-2.671-1.55c-1.109-0.46-2.46-0.69-4.039-0.69c-2.11,0-4.13,0.48-6.05,1.421
			c-1.94,0.959-3.66,2.259-5.22,3.919c-1.55,1.66-2.77,3.53-3.65,5.631c-0.89,2.089-1.33,4.289-1.33,6.569
			c0,2.33,0.44,4.561,1.33,6.681c0.88,2.13,2.1,4.02,3.62,5.7c1.53,1.689,3.26,3,5.2,3.959c1.95,0.95,3.99,1.43,6.1,1.43
			c1.64,0,3.02-0.229,4.149-0.669c1.11-0.44,2.021-0.931,2.69-1.47c0.68-0.53,1.14-0.961,1.38-1.301h-0.979
			c-0.061,0.91,0.42,1.689,1.43,2.39s2.58,1.05,4.689,1.05C519.26,546.819,520.77,546.51,521.63,545.92z"/>
		<path fill-rule="evenodd" clip-rule="evenodd" fill="#0095FF" d="M538.79,545.98c0.86-0.601,1.391-1.391,1.58-2.38
			c0.19-0.98,0.29-1.98,0.29-3.011v-11.47c0-1.02,0.21-1.89,0.63-2.65c0.41-0.75,1.01-1.33,1.79-1.75
			c0.78-0.409,1.68-0.63,2.71-0.63c1.08,0,1.979,0.21,2.71,0.6c0.72,0.391,1.279,0.961,1.689,1.711
			c0.391,0.75,0.601,1.66,0.601,2.72v11.41c0,1.02,0.08,2.02,0.279,3c0.171,0.989,0.71,1.789,1.611,2.42
			c0.889,0.61,2.409,0.93,4.579,0.93c2.141,0,3.65-0.311,4.53-0.899c0.86-0.601,1.391-1.391,1.58-2.38
			c0.18-0.98,0.28-1.98,0.28-3.011v-11.47c0-2.51-0.311-4.84-0.91-6.99c-0.61-2.149-1.51-4.02-2.711-5.63
			c-1.199-1.6-2.68-2.85-4.469-3.74c-1.781-0.88-3.841-1.329-6.181-1.329c-1,0-2.04,0.18-3.14,0.529c-1.09,0.351-2.12,0.81-3.09,1.4
			c-0.961,0.579-1.73,1.22-2.311,1.92c-0.59,0.7-0.87,1.4-0.811,2.1l0.561-0.43c-0.1-0.131-0.15-0.49-0.12-1.07
			c0.03-0.59-0.069-1.229-0.31-1.93c-0.229-0.7-0.79-1.28-1.65-1.77c-0.87-0.5-2.26-0.75-4.18-0.75c-2.11,0-3.62,0.289-4.511,0.88
			c-0.889,0.579-1.439,1.34-1.609,2.27c-0.19,0.93-0.279,1.91-0.279,2.93v23.021c0,1.02,0.069,2.02,0.25,3
			c0.159,0.989,0.689,1.789,1.579,2.42c0.88,0.61,2.391,0.93,4.5,0.93C536.41,546.88,537.92,546.569,538.79,545.98z"/>
		<path fill-rule="evenodd" clip-rule="evenodd" fill="#0095FF" d="M589.819,530.76l5.7-4.96c1.681-1.68,2.561-3.119,2.641-4.33
			c0.05-1.21-0.82-2.8-2.641-4.77c-1.089-1.16-2.109-1.92-3.06-2.27c-0.97-0.351-1.94-0.32-2.92,0.079c-1,0.4-2.05,1.13-3.16,2.19
			l-5.979,5.8v-19.29c0-1.07-0.101-2.09-0.29-3.07c-0.2-0.98-0.721-1.78-1.591-2.42c-0.859-0.63-2.339-0.95-4.45-0.95
			c-2.109,0-3.619,0.32-4.509,0.95c-0.9,0.64-1.44,1.43-1.621,2.38c-0.189,0.96-0.27,1.96-0.27,3.04v38.94
			c0,1.04,0.07,2.04,0.24,3.021c0.17,0.989,0.689,1.789,1.59,2.419c0.88,0.61,2.39,0.931,4.5,0.931c2.15,0,3.66-0.311,4.52-0.9
			c0.87-0.619,1.391-1.399,1.591-2.38c0.189-0.97,0.29-1.98,0.29-3.01v-3.85l8.64,8.04c1.22,1.08,2.271,1.81,3.17,2.219
			c0.88,0.381,1.78,0.381,2.71,0c0.91-0.409,2.011-1.259,3.27-2.569c1.681-1.76,2.471-3.33,2.351-4.7
			c-0.109-1.369-1.05-2.84-2.78-4.39L589.819,530.76z"/>
		<path fill-rule="evenodd" clip-rule="evenodd" fill="#0095FF" d="M616.13,524.27c0.439-0.669,1.09-1.239,1.939-1.68
			c0.831-0.43,1.811-0.67,2.96-0.67c0.831,0,1.551,0.12,2.171,0.32c0.61,0.21,1.09,0.529,1.45,0.94c0.35,0.42,0.52,0.93,0.52,1.539
			c0,0.55-0.16,0.98-0.46,1.25c-0.31,0.29-0.8,0.431-1.44,0.431H615.4C615.43,525.65,615.68,524.939,616.13,524.27z M629.04,547
			c2.16-0.51,3.81-1.21,4.95-2.149c1.149-0.931,1.729-2.091,1.729-3.49c0-0.471-0.069-0.96-0.22-1.5c-0.14-0.53-0.38-1.11-0.7-1.721
			c-0.56-1.109-1.189-1.959-1.89-2.51c-0.7-0.55-1.48-0.84-2.33-0.84c-0.38,0-0.761,0.061-1.16,0.17
			c-0.41,0.12-0.851,0.28-1.33,0.45c-0.5,0.19-1.029,0.38-1.609,0.57c-0.591,0.189-1.291,0.339-2.08,0.45
			c-0.811,0.119-1.721,0.18-2.74,0.18c-1.04,0-2.01-0.15-2.891-0.45c-0.89-0.31-1.63-0.729-2.209-1.271
			c-0.591-0.529-0.98-1.17-1.16-1.92h14.979c2.05,0,3.73-0.7,5.05-2.1c1.32-1.4,1.98-3.431,1.98-6.08c0-1.4-0.311-2.91-0.92-4.54
			c-0.62-1.63-1.561-3.16-2.851-4.62c-1.29-1.44-2.97-2.64-5.02-3.569c-2.07-0.931-4.56-1.4-7.46-1.4c-3.75,0-7.091,0.8-9.99,2.38
			c-2.9,1.58-5.18,3.771-6.82,6.57c-1.64,2.79-2.46,6.04-2.46,9.729c0,2.011,0.351,4.08,1.061,6.221c0.7,2.159,1.8,4.149,3.29,5.989
			c1.5,1.83,3.479,3.33,5.91,4.47c2.43,1.12,5.419,1.7,8.939,1.7C624.22,547.72,626.87,547.48,629.04,547z"/>
		<path fill-rule="evenodd" clip-rule="evenodd" fill="#0095FF" d="M673.33,545.95c0.87-0.631,1.4-1.431,1.59-2.42
			c0.17-0.98,0.28-1.98,0.28-3V501.72c0-1.08-0.11-2.09-0.28-3.05c-0.189-0.96-0.72-1.73-1.59-2.35c-0.87-0.59-2.38-0.9-4.54-0.9
			c-2.11,0-3.59,0.32-4.42,0.95c-0.851,0.62-1.32,1.43-1.44,2.4c-0.119,0.99-0.17,1.98-0.17,3v41.61c0.32,1.23,0.95,2.12,1.891,2.67
			c0.93,0.54,2.34,0.83,4.22,0.83C670.98,546.88,672.46,546.561,673.33,545.95z M654.8,533.53c-0.79-0.461-1.42-1.07-1.89-1.85
			c-0.471-0.771-0.7-1.601-0.7-2.491c0-0.93,0.22-1.77,0.66-2.55c0.44-0.76,1.05-1.37,1.83-1.82c0.76-0.439,1.619-0.669,2.56-0.669
			c0.98,0,1.851,0.229,2.61,0.7c0.75,0.469,1.35,1.08,1.79,1.819c0.439,0.761,0.67,1.59,0.67,2.52c0,0.891-0.23,1.721-0.7,2.491
			c-0.47,0.779-1.09,1.389-1.83,1.85c-0.771,0.47-1.59,0.7-2.47,0.7C656.439,534.23,655.59,534,654.8,533.53z M661.66,545.319
			c1.67-1,1.46-31.43-0.18-32.389c-1.641-0.94-3.591-1.421-5.83-1.421c-2.07,0-4.07,0.49-6.021,1.471
			c-1.95,0.97-3.69,2.279-5.25,3.95c-1.55,1.659-2.77,3.52-3.649,5.619c-0.891,2.101-1.33,4.27-1.33,6.5
			c0,2.33,0.439,4.57,1.33,6.71c0.88,2.16,2.1,4.051,3.619,5.71c1.53,1.67,3.261,2.961,5.2,3.92c1.95,0.95,3.99,1.43,6.101,1.43
			C657.99,546.819,659.99,546.33,661.66,545.319z"/>
		<path fill-rule="evenodd" clip-rule="evenodd" fill="#0095FF" d="M426.54,524.02l1.75,0.021l0.016,0.001l12.724,0.148l0,0
			l3.64,0.03c1.09,0,2.1-0.109,3.07-0.34c0.96-0.24,1.75-0.79,2.38-1.68c0.63-0.881,0.96-2.3,0.96-4.27
			c0-2.141-0.33-3.661-0.96-4.541s-1.42-1.42-2.38-1.609c-0.97-0.17-1.97-0.271-2.99-0.271l-3.72,0.07l0,0l-12.74,0.25h-0.11
			l-1.37,0.03c-1.49,0-2.62,0.51-3.37,1.5c-0.76,1-1.12,2.5-1.12,4.5c0,2.149,0.29,3.68,0.9,4.62
			C423.84,523.41,424.94,523.931,426.54,524.02z M441.03,532.27v-8.08l-12.74-0.149v8.85c0,2.391,0.3,4.461,0.88,6.24
			c0.59,1.78,1.47,3.23,2.67,4.4c1.2,1.159,2.71,2.039,4.54,2.59c1.82,0.54,3.99,0.83,6.48,0.83c0.96,0,1.95-0.09,2.94-0.23
			c0.98-0.18,1.8-0.689,2.46-1.569c0.65-0.891,0.99-2.391,0.99-4.49c0-1.87-0.28-3.19-0.81-3.979c-0.54-0.791-1.29-1.28-2.26-1.471
			c-0.96-0.18-2.05-0.279-3.26-0.279c-0.39,0-0.68-0.041-0.91-0.141c-0.24-0.09-0.43-0.24-0.57-0.43c-0.15-0.171-0.25-0.45-0.31-0.8
			C441.06,533.21,441.03,532.79,441.03,532.27z M428.29,505.77v6.061l12.74-0.25v-5.54c0-1.021-0.11-2.01-0.3-3
			c-0.19-0.979-0.73-1.78-1.61-2.42c-0.89-0.62-2.37-0.94-4.42-0.94c-2.11,0-3.62,0.29-4.52,0.87c-0.89,0.58-1.43,1.34-1.61,2.24
			C428.38,503.71,428.29,504.7,428.29,505.77z"/>
		<g>
			<path fill-rule="evenodd" clip-rule="evenodd" fill="#00D6E4" d="M400.5,555.069c3.07-1.159,5.92-2.85,8.51-5.1
				c2.6-2.229,4.69-4.979,6.29-8.22c1.58-3.23,2.39-6.939,2.39-11.12c0-4.87-1.21-9.311-3.59-13.28c-2.39-3.97-5.57-7.109-9.55-9.46
				c-3.99-2.35-8.45-3.529-13.37-3.529c-3.59,0-6.95,0.7-10.11,2.079c-3.15,1.41-5.95,3.311-8.36,5.7
				c-2.43,2.421-4.34,5.21-5.73,8.391c-1.41,3.18-2.09,6.57-2.09,10.21c0,3.96,0.76,7.56,2.34,10.76c1.56,3.22,3.65,5.97,6.27,8.24
				c2.61,2.27,5.5,4.029,8.61,5.25c3.12,1.199,6.21,1.82,9.28,1.82C394.38,556.811,397.41,556.23,400.5,555.069z M377.7,529.931
				c0-7.45,6.08-13.491,13.58-13.491s13.58,6.041,13.58,13.491c0,7.449-6.08,13.489-13.58,13.489S377.7,537.38,377.7,529.931z"/>
			<path fill-rule="evenodd" clip-rule="evenodd" fill="#00D6E4" d="M382.98,529.931c0-4.551,3.72-8.241,8.3-8.241
				c4.58,0,8.3,3.69,8.3,8.241c0,4.55-3.72,8.239-8.3,8.239C386.7,538.17,382.98,534.48,382.98,529.931z"/>
			<path fill="#00D6E4" d="M420.88,541.439l-4.96-2.489c-2.67,5.46-6.74,10.119-11.75,13.61l15.42,11.859
				C426.65,557.819,427.23,547.54,420.88,541.439z"/>
		</g>
	</g>
</g>
<g id="Layer_2">
	<g>
		<path fill-rule="evenodd" clip-rule="evenodd" fill="#00D6E4" d="M372.711,494.588c4.73-1.787,9.121-4.39,13.111-7.856
			c4.006-3.436,7.227-7.673,9.691-12.665c2.435-4.976,3.683-10.692,3.683-17.132c0-7.503-1.864-14.344-5.531-20.46
			c-3.683-6.117-8.582-10.954-14.714-14.575c-6.147-3.621-13.019-5.439-20.598-5.439c-5.532,0-10.708,1.079-15.577,3.205
			c-4.853,2.172-9.167,5.1-12.88,8.782c-3.744,3.729-6.687,8.027-8.828,12.926c-2.173,4.9-3.22,10.123-3.22,15.731
			c0,6.101,1.17,11.647,3.605,16.577c2.403,4.961,5.623,9.198,9.66,12.696c4.021,3.497,8.474,6.208,13.265,8.088
			c4.807,1.849,9.567,2.804,14.298,2.804C363.283,497.27,367.951,496.376,372.711,494.588z M337.584,455.856
			c0-11.478,9.367-20.784,20.922-20.784s20.922,9.306,20.922,20.784c0,11.478-9.367,20.783-20.922,20.783
			S337.584,467.334,337.584,455.856z"/>
		<path fill-rule="evenodd" clip-rule="evenodd" fill="#087DEA" d="M345.719,455.856c0-7.01,5.731-12.695,12.787-12.695
			c7.056,0,12.788,5.685,12.788,12.695c0,7.01-5.732,12.695-12.788,12.695C351.451,468.551,345.719,462.866,345.719,455.856z"/>
		<path fill="#087DEA" d="M404.11,473.589l-7.642-3.836c-4.114,8.412-10.384,15.591-18.103,20.968l23.757,18.272
			C413,498.825,413.894,482.988,404.11,473.589z"/>
	</g>
	<path fill="#087DEA" d="M266.678,401.667c2.747,0,4.879,0.686,6.397,2.06c1.517,1.373,2.276,3.289,2.276,5.746
		c0,0.361-0.108,9.106-0.325,26.235c1.084-1.807,2.8-3.234,5.149-4.282c2.349-1.048,4.716-1.572,7.101-1.572
		c6.649,0,11.672,2.059,15.069,6.179c3.397,4.12,5.095,9.576,5.095,16.37c0,11.274-0.036,18.466-0.108,21.574
		c-0.073,2.313-0.994,4.083-2.765,5.313c-1.771,1.228-4.065,1.842-6.883,1.842c-2.458,0-4.536-0.632-6.234-1.897
		c-1.698-1.265-2.511-3.09-2.439-5.475c0-0.722,0.09-3.993,0.271-9.811c0.181-5.818,0.271-9.233,0.271-10.245
		c0-2.674-0.596-4.734-1.788-6.179c-1.193-1.446-2.873-2.169-5.041-2.169c-2.023,0-3.813,0.795-5.367,2.386
		c-1.554,1.589-2.331,3.794-2.331,6.612c0,2.385,0.018,5.746,0.053,10.082c0.037,4.337,0.055,7.661,0.055,9.974
		c0,2.313-0.868,4.066-2.602,5.258c-1.735,1.193-3.975,1.79-6.722,1.79c-2.457,0-4.518-0.632-6.179-1.897
		c-1.663-1.265-2.493-3.126-2.493-5.583c0-1.012,0.053-3.288,0.163-6.83c0.108-3.541,0.163-5.89,0.163-7.046V410.34
		C257.464,404.559,260.535,401.667,266.678,401.667z"/>
	<path fill="#087DEA" d="M411.987,438.202c0-2.096,0.633-3.831,1.897-5.204c1.265-1.373,2.873-2.06,4.824-2.06h3.36l0.217-5.747
		c0.217-6.215,3.434-9.323,9.649-9.323c2.24,0,3.993,0.597,5.258,1.789c1.265,1.192,1.897,2.837,1.897,4.933
		c0,0.578-0.071,3.324-0.217,8.239h6.18c2.24-0.071,3.975,0.524,5.203,1.79c1.229,1.265,1.843,3.125,1.843,5.583
		c0,2.096-0.505,3.867-1.517,5.312c-1.012,1.446-2.457,2.169-4.337,2.169h-7.48v14.093c0,3.902,1.192,5.854,3.578,5.854
		c0.794,0,1.571-0.09,2.331-0.272c0.758-0.18,1.391-0.271,1.897-0.271c1.878,0,3.378,0.687,4.499,2.06
		c1.12,1.374,1.681,3,1.681,4.878c0,3.541-0.975,5.963-2.927,7.264c-2.095,1.445-5.564,2.168-10.407,2.168
		c-5.276,0-9.522-1.663-12.738-4.987c-3.216-3.325-4.824-8.384-4.824-15.177c0-1.156,0.036-3.541,0.108-7.155
		c0.072-3.614,0.072-6.396,0-8.348h-3.687C414.083,445.791,411.987,443.261,411.987,438.202z"/>
	<path fill="#087DEA" d="M462.833,432.293c1.518-1.337,3.65-2.005,6.396-2.005c3.47,0,5.638,1.518,6.504,4.553l0.76,2.71
		c0.939-2.168,2.583-3.993,4.933-5.474c2.349-1.482,4.715-2.223,7.1-2.223c4.988,0,7.48,2.71,7.48,8.13
		c0,2.313-0.596,4.319-1.789,6.018c-1.192,1.698-2.873,2.547-5.041,2.547h-1.409c-6.649,0-9.974,4.589-9.974,13.768
		c0,0.795,0.054,2.927,0.163,6.397c0.109,3.469,0.126,5.999,0.054,7.588c-0.072,2.385-0.939,4.156-2.601,5.312
		c-1.664,1.157-3.794,1.735-6.397,1.735c-5.782,0-8.673-2.71-8.673-8.131c0-2.89,0.036-7.227,0.109-13.009
		c0.072-5.781,0.108-9.866,0.108-12.25v-9.757C460.556,435.6,461.314,433.63,462.833,432.293z"/>
	<path fill="#087DEA" d="M552.381,462.811c0,3.687,0.108,7.373,0.325,11.059c0,4.915-3.035,7.372-9.106,7.372
		c-3.759,0-6.288-2.204-7.589-6.613c-2.817,4.626-7.154,6.938-13.009,6.938c-7.373,0-13.28-2.313-17.726-6.938
		c-4.444-4.625-6.667-10.515-6.667-17.671c0-8.094,2.421-14.581,7.264-19.459c4.842-4.878,10.985-7.317,18.429-7.317
		c5.421,0,9.469,1.916,12.143,5.745c0.29-1.084,0.723-2.023,1.302-2.818c1.301-1.807,3.469-2.71,6.504-2.71
		c5.493,0,8.239,2.566,8.239,7.697l-0.108,8.347V462.811z M519.099,463.787c1.662,1.951,3.759,2.927,6.287,2.927
		c2.747,0,5.077-0.994,6.993-2.981c1.915-1.988,2.873-4.644,2.873-7.968c0-3.253-0.904-5.818-2.71-7.697
		c-1.807-1.879-4.012-2.819-6.613-2.819c-2.818,0-5.077,0.994-6.776,2.981c-1.698,1.987-2.546,4.752-2.546,8.293
		C516.606,459.414,517.437,461.835,519.099,463.787z"/>
	<path fill="#087DEA" d="M564.524,439.286c-0.146-6.071,2.819-9.106,8.89-9.106c4.625,0,7.264,1.843,7.913,5.528l0.326,1.952
		c0.939-2.241,2.747-4.084,5.421-5.53c2.674-1.445,5.42-2.167,8.239-2.167c6.215,0,11.021,1.879,14.418,5.637
		c3.396,3.758,5.096,9.179,5.096,16.261c0,1.663-0.019,3.813-0.055,6.451c-0.036,2.638-0.054,4.896-0.054,6.776v8.564
		c0,4.987-3.18,7.48-9.54,7.48c-2.458,0-4.481-0.614-6.071-1.842c-1.59-1.229-2.385-3.072-2.385-5.53
		c0-1.518,0.035-4.282,0.108-8.293c0.072-4.01,0.108-6.956,0.108-8.834c0-3.687-0.416-6.541-1.247-8.565
		c-0.832-2.023-2.512-3.071-5.041-3.145c-3.47-0.071-5.782,1.013-6.938,3.253c-1.156,2.241-1.734,5.962-1.734,11.166l0.107,14.853
		c0,2.457-0.849,4.247-2.546,5.367c-1.699,1.12-3.705,1.68-6.018,1.68c-2.963,0-5.239-0.523-6.83-1.572
		c-1.59-1.047-2.386-2.981-2.386-5.799c0-2.313,0.072-6.758,0.218-13.335c0.145-6.576,0.181-11.708,0.108-15.394L564.524,439.286z"
		/>
	<path fill="#087DEA" d="M671.421,468.448c1.3,1.59,1.95,3.181,1.95,4.77c0,1.952-0.957,3.813-2.873,5.583
		c-1.914,1.771-3.992,2.657-6.233,2.657c-2.239,0-4.408-1.337-6.504-4.011l-11.384-14.853l-2.709,2.494l-0.109,8.89
		c-0.145,4.914-3,7.372-8.564,7.372c-2.675,0-4.825-0.704-6.45-2.114c-1.626-1.409-2.403-3.378-2.331-5.909l0.217-10.407
		c0-3.831-0.036-11.131-0.108-21.899c-0.073-10.769-0.073-19.334,0-25.693c0-0.579-0.019-1.626-0.054-3.145
		c-0.036-1.518-0.055-2.565-0.055-3.143c0-2.241,0.922-4.011,2.765-5.313c1.843-1.301,3.921-1.951,6.232-1.951
		c2.675,0,4.844,0.578,6.505,1.735c1.663,1.156,2.494,2.891,2.494,5.203c0,2.891-0.181,15.612-0.541,38.161l13.225-13.552
		c2.24-2.24,4.481-3.36,6.722-3.36c1.952,0,3.849,0.921,5.692,2.764c1.842,1.843,2.764,3.704,2.764,5.583
		c0,1.879-0.723,3.542-2.168,4.987c-0.288,0.289-4.048,3.758-11.274,10.408L671.421,468.448z"/>
	<path fill="#087DEA" d="M699.663,464.924c1.771,1.121,3.632,1.681,5.582,1.681c2.892,0,5.494-0.65,7.807-1.951
		c1.88-1.012,3.723-1.518,5.529-1.518c1.95,0,3.612,0.832,4.986,2.494c1.373,1.662,2.06,3.613,2.06,5.854
		c0,2.747-1.337,4.915-4.011,6.505c-4.192,2.529-10.01,3.793-17.454,3.793c-7.155,0-13.227-2.402-18.214-7.209
		c-4.986-4.806-7.479-10.642-7.479-17.508c0-7.878,2.512-14.383,7.535-19.514c5.021-5.131,11.22-7.697,18.592-7.697
		c6.722,0,12.269,2.078,16.641,6.233c4.373,4.156,6.559,8.944,6.559,14.364c0,3.47-0.596,5.909-1.788,7.317
		c-1.192,1.41-3.523,2.151-6.992,2.223c-0.507,0-1.699,0.018-3.578,0.054s-4.535,0.09-7.968,0.163
		c-3.434,0.073-7.102,0.108-11.004,0.108C696.826,462.269,697.893,463.804,699.663,464.924z M698.903,445.574
		c-1.553,1.301-2.402,2.783-2.547,4.444c0.289,0,4.771-0.107,13.442-0.324c0.867,0,1.302-0.181,1.302-0.542
		c0-1.59-0.651-2.909-1.952-3.957s-2.891-1.572-4.77-1.572C702.282,443.622,700.458,444.273,698.903,445.574z"/>
	<path fill="#087DEA" d="M788.725,432.13c0,2.674-0.019,6.65-0.055,11.926c-0.035,5.276-0.055,9.396-0.055,12.358
		c0,0.651,0.073,6.542,0.217,17.671c0,2.385-0.758,4.174-2.275,5.366c-1.518,1.193-3.578,1.789-6.18,1.789
		c-3.976,0-6.433-1.482-7.372-4.444l-0.759-2.494c-3.181,4.843-7.697,7.264-13.552,7.264c-7.661,0-13.642-2.367-17.941-7.1
		c-4.301-4.734-6.451-10.498-6.451-17.292c0-7.661,2.458-14.094,7.372-19.297c4.915-5.204,11.166-7.806,18.756-7.806
		c4.553,0,8.058,1.445,10.516,4.336v-23.742c0-2.891,0.776-5.095,2.33-6.613c1.554-1.518,3.668-2.277,6.343-2.277
		c3.036,0,5.385,0.633,7.047,1.897c1.662,1.265,2.457,3.379,2.385,6.342L788.725,432.13z M754.9,463.678
		c1.807,1.952,4.011,2.927,6.613,2.927c2.963,0,5.384-0.958,7.264-2.872c1.879-1.915,2.818-4.463,2.818-7.643
		c0-3.469-0.904-6.143-2.71-8.022c-1.808-1.879-4.084-2.819-6.83-2.819c-2.964,0-5.349,0.994-7.155,2.981
		c-1.807,1.987-2.71,4.788-2.71,8.402C752.19,459.379,753.094,461.728,754.9,463.678z"/>
</g>
<g id="Layer_3">
</g>
</svg>
